<?xml version="1.0" standalone="no"?>
<!DOCTYPE svg PUBLIC "-//W3C//DTD SVG 20010904//EN"
 "http://www.w3.org/TR/2001/REC-SVG-20010904/DTD/svg10.dtd">
<svg version="1.0" xmlns="http://www.w3.org/2000/svg"
 width="393.000000pt" height="393.000000pt" viewBox="0 0 393.000000 393.000000"
 preserveAspectRatio="xMidYMid meet">
<metadata>
Created by potrace 1.11, written by Peter Selinger 2001-2013
</metadata>
<g transform="translate(0.000000,393.000000) scale(0.100000,-0.100000)"
fill="#000000" stroke="none">
<path d="M1145 3634 c-165 -163 -490 -484 -722 -713 l-423 -416 15 -55 c9 -30
20 -73 24 -95 5 -22 27 -107 49 -190 66 -246 233 -879 237 -895 2 -8 20 -76
39 -150 20 -74 61 -232 92 -350 30 -118 58 -218 62 -222 4 -3 266 -76 582
-162 316 -86 598 -163 625 -171 28 -8 93 -26 145 -40 52 -14 136 -37 185 -51
223 -61 419 -113 421 -111 3 3 764 752 1146 1127 l300 295 -31 115 c-37 139
-97 367 -145 550 -19 74 -42 162 -51 195 -9 33 -18 67 -20 76 -5 25 -93 357
-109 414 -8 28 -42 158 -76 290 -34 132 -67 258 -74 280 l-13 40 -99 28 c-54
15 -148 41 -209 57 -60 16 -157 42 -215 58 -58 16 -148 41 -200 55 -52 14
-187 51 -300 82 -207 57 -243 67 -380 104 -41 11 -183 50 -314 86 -132 36
-240 65 -240 65 -1 0 -136 -134 -301 -296z m650 -348 c44 -10 267 -75 271 -79
2 -2 -170 -174 -382 -383 -213 -208 -503 -494 -645 -634 l-259 -255 11 -45 c6
-25 12 -52 14 -60 2 -8 31 -125 65 -260 34 -135 63 -250 64 -257 1 -7 4 -15 7
-18 6 -5 40 27 773 749 247 242 510 501 585 574 75 74 200 197 278 275 l142
141 69 -22 c137 -44 192 -98 238 -232 13 -40 24 -74 24 -76 0 -2 -40 -44 -89
-92 -77 -76 -645 -634 -1135 -1116 -88 -87 -248 -244 -354 -349 l-193 -191
173 -47 c95 -27 189 -53 208 -58 138 -41 253 -72 260 -69 5 2 215 206 467 454
872 860 827 816 836 791 5 -12 10 -29 12 -37 2 -8 15 -58 29 -110 35 -133 40
-157 38 -227 -2 -99 -31 -143 -204 -312 -83 -80 -266 -261 -408 -402 -231
-231 -320 -307 -370 -317 -92 -18 -172 -4 -460 81 -102 30 -293 83 -425 117
-354 91 -400 108 -455 162 -55 56 -86 141 -164 453 -73 293 -130 508 -140 524
-3 4 -7 18 -10 32 -2 13 -14 65 -26 114 -49 201 -28 261 153 438 67 66 255
251 417 411 342 338 358 349 480 342 41 -2 89 -7 105 -10z"/>
</g>
</svg>
