<svg width="47" height="48" viewBox="0 0 47 48" fill="none" xmlns="http://www.w3.org/2000/svg">
<rect width="47" height="48" rx="23.5" fill="#FFAD27"/>
<path d="M28.9658 26.8919C28.2797 26.2146 27.4232 26.2146 26.7414 26.8919C26.2214 27.4076 25.7014 27.9232 25.1901 28.4476C25.0503 28.5918 24.9323 28.6224 24.7618 28.5262C24.4253 28.3427 24.067 28.1941 23.7436 27.9931C22.236 27.0449 20.973 25.8257 19.8543 24.4535C19.2993 23.7718 18.8055 23.042 18.4603 22.2205C18.3903 22.0544 18.4035 21.9452 18.5389 21.8097C19.059 21.3072 19.5659 20.7915 20.0772 20.2759C20.7895 19.5592 20.7895 18.7202 20.0728 17.9992C19.6664 17.5884 19.26 17.1864 18.8536 16.7756C18.434 16.3561 18.0189 15.9322 17.595 15.5171C16.9089 14.8485 16.0524 14.8485 15.3707 15.5214C14.8463 16.0371 14.3437 16.5658 13.8106 17.0727C13.3168 17.5403 13.0677 18.1128 13.0152 18.7814C12.9322 19.8695 13.1988 20.8964 13.5746 21.8971C14.3437 23.9684 15.5149 25.8082 16.9351 27.495C18.8536 29.776 21.1435 31.5808 23.8223 32.883C25.0284 33.4686 26.2782 33.9187 27.6373 33.993C28.5725 34.0454 29.3853 33.8095 30.0364 33.0797C30.4822 32.5815 30.9847 32.127 31.4567 31.6507C32.1559 30.9428 32.1603 30.0863 31.4654 29.3871C30.6351 28.5525 29.8005 27.7222 28.9658 26.8919Z" fill="white"/>
<path d="M28.1311 23.4091L29.7436 23.1338C29.4901 21.6524 28.7909 20.3108 27.729 19.2446C26.6059 18.1215 25.1857 17.4136 23.6212 17.1951L23.394 18.8163C24.6045 18.9868 25.7057 19.533 26.5753 20.4026C27.3969 21.2242 27.9344 22.2642 28.1311 23.4091Z" fill="white"/>
<path d="M30.6526 16.3998C28.7909 14.5382 26.4355 13.3627 23.8353 13L23.6081 14.6212C25.8543 14.9359 27.8907 15.9541 29.4989 17.5578C31.024 19.0829 32.0248 21.01 32.3875 23.1294L34 22.8541C33.5761 20.3982 32.4181 18.1696 30.6526 16.3998Z" fill="white"/>
</svg>
