<svg width="41" height="56" viewBox="0 0 41 56" fill="none" xmlns="http://www.w3.org/2000/svg">
<path d="M40.625 15.5643V51.9569C40.625 53.914 39.0309 55.5 37.0672 55.5H4.18282C2.21757 55.5 0.625 53.914 0.625 51.9569V4.0431C0.624892 2.08598 2.21746 0.5 4.18282 0.5H25.4981H25.625H37.097C39.0459 0.5 40.625 2.07921 40.625 4.02797V15.5V15.5643Z" fill="#FFAC18"/>
<path d="M25.5491 37.375H15.7754C15.4302 37.375 15.1504 37.6548 15.1504 38V38.2474C15.1504 38.5926 15.4302 38.8724 15.7754 38.8724H25.5491C25.8942 38.8724 26.1741 38.5926 26.1741 38.2474V38C26.1741 37.6548 25.8942 37.375 25.5491 37.375Z" fill="white"/>
<path d="M20.0947 35.4053C20.3876 35.6982 20.8624 35.6982 21.1553 35.4053L25.9283 30.6324C26.2212 30.3395 26.2212 29.8646 25.9283 29.5717C25.6354 29.2788 25.1605 29.2788 24.8676 29.5717L20.625 33.8143L16.3824 29.5717C16.0895 29.2788 15.6146 29.2788 15.3217 29.5717C15.0288 29.8646 15.0288 30.3395 15.3217 30.6324L20.0947 35.4053ZM19.875 20.5L19.875 34.875L21.375 34.875L21.375 20.5L19.875 20.5Z" fill="white"/>
</svg>
