<svg width="56" height="56" viewBox="0 0 56 56" fill="none" xmlns="http://www.w3.org/2000/svg">
<path d="M28.3193 27.7598C27.7153 27.7598 27.2256 28.2495 27.2256 28.8535V28.8653C27.2256 29.4693 27.7153 29.9591 28.3193 29.9591C28.9234 29.9591 29.4131 29.4693 29.4131 28.8653V28.8535C29.4131 28.2495 28.9234 27.7598 28.3193 27.7598Z" fill="#FFAC18"/>
<path d="M46.8125 41.5932C46.8125 44.9504 44.0812 47.6817 40.7239 47.6817H15.8594C15.5693 47.6817 15.2911 47.797 15.086 48.0021L10.8227 52.2654V48.7755C10.8227 48.1715 10.333 47.6817 9.72891 47.6817H8.27608C4.91881 47.6817 2.1875 44.9504 2.1875 41.5932V22.7078C2.1875 19.3506 4.91881 16.6193 8.27608 16.6193H14.4108C15.0149 16.6193 15.5046 16.1296 15.5046 15.5255C15.5046 14.9214 15.0149 14.4318 14.4108 14.4318H8.27608C3.71263 14.4318 0 18.1444 0 22.7078V41.5932C0 46.1566 3.71263 49.8692 8.27608 49.8692H8.63516V54.9061C8.63516 55.3485 8.9017 55.7473 9.31033 55.9165C9.44563 55.9726 9.5877 55.9998 9.72869 55.9998C10.0133 55.9998 10.2931 55.8887 10.5023 55.6795L16.3125 49.8692H40.724C45.2875 49.8692 49.0001 46.1566 49.0001 41.5932C49.0001 41.5932 49 38.5009 49.0001 36.0009C49.0001 35.4222 48.3335 35.0009 47.9063 35.0009C47.4791 35.0009 46.8125 35.4222 46.8125 36.0009C46.8125 38.2967 46.8125 41.5932 46.8125 41.5932Z" fill="#FFAC18"/>
<path fill-rule="evenodd" clip-rule="evenodd" d="M56 19.6656C56 17.8518 54.6038 16.3588 52.83 16.2029C52.9936 15.7999 53.0846 15.36 53.0846 14.899V14.8531C53.0846 12.9358 51.5248 11.376 49.6076 11.376H42.058L44.9488 7.08518C45.8981 5.55392 45.5396 3.45691 44 2.50089C42.6519 1.66376 40.7424 2.02194 39.62 3.22659L31.9003 12.0239C31.6997 11.7912 31.4035 11.6435 31.0723 11.6435H25.3848C24.7808 11.6435 24.2911 12.1332 24.2911 12.7372V31.9872C24.2911 32.5912 24.7808 33.081 25.3848 33.081H31.0723C31.66 33.081 32.138 32.6172 32.1637 32.0359L33.9542 32.7381C34.0814 32.788 34.2168 32.8135 34.3535 32.8135H46.8125H49.0001H49.6077C51.5249 32.8135 53.0847 31.2537 53.0847 29.3365V29.2906C53.0847 28.8296 52.9937 28.3896 52.8301 27.9867C54.6038 27.8307 56 26.3378 56 24.524V24.4781C56 23.5563 55.6387 22.7177 55.0512 22.0948C55.6387 21.4719 56 20.6333 56 19.7115V19.6656ZM26.4786 30.8935H29.9786V13.831H26.4786V30.8935ZM52.523 21.001C53.234 21.001 53.8125 20.4226 53.8125 19.7115V19.6656C53.8125 18.9545 53.234 18.376 52.523 18.376H49.6076H45.218C44.614 18.376 44.1243 17.8863 44.1243 17.2823C44.1243 16.6783 44.614 16.1885 45.218 16.1885H49.6076C50.3186 16.1885 50.8971 15.6101 50.8971 14.899V14.8531C50.8971 14.142 50.3186 13.5635 49.6076 13.5635H40.3294C39.9545 13.5635 39.6057 13.3715 39.4052 13.0546C39.2047 12.7378 39.1804 12.3404 39.341 12.0014L43.3819 6.07976C43.8302 5.41799 43.8227 4.74095 43.058 4.17222C42.2932 3.60348 41.6397 3.92806 41.1519 4.50514C32.1661 15.1343 32.1661 15.1343 32.1661 15.1343V29.6872L34.5602 30.626H49.6076C50.3186 30.626 50.8971 30.0476 50.8971 29.3365V29.2906C50.8971 28.5795 50.3186 28.001 49.6076 28.001H45.218C44.614 28.001 44.1243 27.5113 44.1243 26.9073C44.1243 26.3033 44.614 25.8135 45.218 25.8135H49.6076H52.523C53.234 25.8135 53.8125 25.2351 53.8125 24.524V24.4781C53.8125 23.767 53.234 23.1885 52.523 23.1885H45.2179C44.6138 23.1885 44.1242 22.6988 44.1242 22.0948C44.1242 21.4908 44.6138 21.001 45.2179 21.001H52.523Z" fill="#FFAC18"/>
<path d="M20.3514 14.7542C20.148 14.5496 19.8658 14.4336 19.5781 14.4336C19.2905 14.4336 19.0083 14.5496 18.8048 14.7542C18.6014 14.9575 18.4844 15.2397 18.4844 15.5273C18.4844 15.815 18.6014 16.0972 18.8048 16.3006C19.0083 16.5041 19.2905 16.6211 19.5781 16.6211C19.8658 16.6211 20.148 16.5042 20.3514 16.3006C20.5548 16.0971 20.6719 15.815 20.6719 15.5273C20.6719 15.2397 20.5548 14.9575 20.3514 14.7542Z" fill="#FFAC18"/>
<path d="M20.298 31.0566H8.52344C7.91936 31.0566 7.42969 31.5464 7.42969 32.1504C7.42969 32.7544 7.91936 33.2441 8.52344 33.2441H20.298C20.9021 33.2441 21.3917 32.7544 21.3917 32.1504C21.3917 31.5464 20.9021 31.0566 20.298 31.0566Z" fill="#FFAC18"/>
<path d="M31.7812 38.0566H14.4102C13.8061 38.0566 13.3164 38.5464 13.3164 39.1504C13.3164 39.7544 13.8061 40.2441 14.4102 40.2441H31.7812C32.3853 40.2441 32.875 39.7544 32.875 39.1504C32.875 38.5464 32.3853 38.0566 31.7812 38.0566Z" fill="#FFAC18"/>
<path d="M9.29672 38.3772C9.09328 38.1738 8.81109 38.0566 8.52344 38.0566C8.23578 38.0568 7.95359 38.1738 7.75016 38.3772C7.54672 38.5805 7.42969 38.8627 7.42969 39.1504C7.42969 39.438 7.54672 39.7202 7.75016 39.9237C7.95359 40.1271 8.23578 40.2441 8.52344 40.2441C8.81109 40.2441 9.09328 40.1272 9.29672 39.9237C9.50016 39.7202 9.61719 39.438 9.61719 39.1504C9.61719 38.8627 9.50016 38.5805 9.29672 38.3772Z" fill="#FFAC18"/>
<path d="M20.298 24.0566H8.52344C7.91936 24.0566 7.42969 24.5464 7.42969 25.1504C7.42969 25.7544 7.91936 26.2441 8.52344 26.2441H20.298C20.9021 26.2441 21.3917 25.7544 21.3917 25.1504C21.3917 24.5464 20.9021 24.0566 20.298 24.0566Z" fill="#FFAC18"/>
</svg>
