<svg width="56" height="56" viewBox="0 0 56 56" fill="none" xmlns="http://www.w3.org/2000/svg">
<path d="M50.0946 2.72064H13.8831C10.7404 2.72064 8.18363 5.25354 8.18363 8.35678L7.95027 40.2429H0.883413C0.382591 40.2429 0 40.6857 0 41.1866V45.5749C0 49.6828 3.28745 53.0425 7.25505 53.2267V53.2794H37.749V53.22C37.9757 53.2293 38.1129 53.2794 38.2688 53.2794H38.2905C42.522 53.2546 45.933 49.8055 45.9109 45.574V17.6842H55.1165C55.6174 17.6842 56 17.2308 56 16.7304V8.6787C56.0057 5.40631 53.367 2.74411 50.0946 2.72064V2.72064ZM7.65182 51.4656H7.64562C4.41972 51.4656 1.81376 48.7994 1.81376 45.574V42.0567H30.6073V45.5589C30.6002 47.6003 31.4065 49.5602 32.8479 51.0055C33.0011 51.1596 33.1614 51.2389 33.3252 51.4656H7.65182ZM44.0971 45.5731C44.0971 48.7994 41.5164 51.4656 38.2892 51.4656H38.2706C35.0274 51.4421 32.4135 48.8025 32.421 45.5594V41.1866C32.4237 40.6787 32.022 40.2606 31.5141 40.2429H9.76404L9.9974 8.36298C9.9974 6.25386 11.7403 4.53441 13.8831 4.53441H45.813C44.7795 5.66801 44.0971 7.10229 44.0971 8.70306V45.5731ZM54.1862 8.69465V15.8704H45.9109V8.70129C45.9109 6.43142 47.799 4.53441 50.068 4.53441H50.0933C52.368 4.55699 54.1968 6.41283 54.1862 8.688V8.69465Z" fill="#FFAD27"/>
<path d="M21.2953 25.0429L25.971 28.2396C26.2761 28.4499 26.6795 28.4499 26.9846 28.2396L31.6461 25.0438C33.2655 23.939 34.4615 21.6293 34.4615 19.6707V13.203C34.4712 12.8611 34.2826 12.544 33.9779 12.3886L26.8588 8.88684C26.6091 8.76286 26.3159 8.76286 26.0662 8.88684L18.9604 12.3789C18.6557 12.5343 18.4675 12.8514 18.4777 13.1932V19.6707C18.4777 21.6293 19.6764 23.939 21.2953 25.0429ZM20.2915 13.7591L26.4696 10.7108L32.6477 13.7675V19.6707C32.6477 21.0368 31.7524 22.7744 30.6227 23.5444L26.459 26.3922L22.3116 23.5449C21.182 22.7739 20.2915 21.0368 20.2915 19.6707V13.7591Z" fill="#FFAD27"/>
<path d="M24.9354 21.0399C25.1046 21.2126 25.3357 21.3104 25.5775 21.3118H25.5797C25.8206 21.3109 26.0513 21.2143 26.2209 21.0434L29.8285 17.4345C30.1832 17.0802 30.1832 16.5055 29.829 16.1512C29.4752 15.7965 28.9004 15.7965 28.5461 16.1508L25.5828 19.1136L24.3983 17.9176C24.0454 17.5616 23.471 17.5589 23.115 17.9118C22.759 18.2648 22.7568 18.8391 23.1093 19.1951L24.9354 21.0399Z" fill="#FFAD27"/>
<path d="M37.749 30.834H15.9838C15.483 30.834 15.0769 31.24 15.0769 31.7409C15.0769 32.2417 15.483 32.6477 15.9838 32.6477H37.749C38.2498 32.6477 38.6558 32.2417 38.6558 31.7409C38.6558 31.24 38.2498 30.834 37.749 30.834Z" fill="#FFAD27"/>
<path d="M37.749 35.0284H15.9838C15.483 35.0284 15.0769 35.4344 15.0769 35.9352C15.0769 36.4361 15.483 36.8421 15.9838 36.8421H37.749C38.2498 36.8421 38.6558 36.4361 38.6558 35.9352C38.6558 35.4344 38.2498 35.0284 37.749 35.0284Z" fill="#FFAD27"/>
</svg>
