<svg width="56" height="56" viewBox="0 0 56 56" fill="none" xmlns="http://www.w3.org/2000/svg">
<path d="M17.7127 13.7375C17.5093 13.534 17.2271 13.417 16.9395 13.417C16.6518 13.417 16.3696 13.534 16.1662 13.7375C15.9628 13.9409 15.8457 14.2231 15.8457 14.5107C15.8457 14.7984 15.9627 15.0806 16.1662 15.284C16.3696 15.4876 16.6518 15.6045 16.9395 15.6045C17.2271 15.6045 17.5093 15.4875 17.7127 15.284C17.9161 15.0806 18.0332 14.7984 18.0332 14.5107C18.0332 14.2231 17.9162 13.9409 17.7127 13.7375Z" fill="#FFAC18"/>
<path d="M55.6801 4.57707L54.3277 3.22311L55.6796 1.87113C56.1068 1.44402 56.1068 0.751457 55.6796 0.324238C55.2524 -0.102871 54.5601 -0.102871 54.1328 0.324238L52.7815 1.67535L51.449 0.341191C51.2439 0.136004 50.9659 0.0205039 50.6758 0.0203945L32.1637 0.0101133C32.1626 0.0101133 32.1616 0.0101133 32.1606 0.0101133C30.6988 0.0101133 29.3245 0.579301 28.2908 1.613L19.053 10.8508C18.6259 11.2779 18.6259 11.9705 19.053 12.3977C19.4802 12.8248 20.1726 12.8248 20.5999 12.3977L29.8377 3.15989C30.4583 2.5393 31.2831 2.19772 32.1606 2.19772C32.1613 2.19772 32.1619 2.19772 32.1625 2.19772L50.2215 2.20779L51.235 3.22235L47.1767 7.2806C45.4558 6.24985 43.187 6.47461 41.7057 7.95577C40.8594 8.80211 40.3934 9.92725 40.3934 11.124C40.3934 12.3208 40.8594 13.446 41.7057 14.2923C42.5791 15.1658 43.7266 15.6025 44.874 15.6025C46.0214 15.6025 47.1687 15.1658 48.0423 14.2923C49.5213 12.8132 49.7476 10.5489 48.7222 8.82891L52.781 4.77011L53.8124 5.80272L53.8023 23.8372C53.8018 24.714 53.4601 25.5383 52.84 26.1584L26.15 52.8482C25.5295 53.4687 24.7045 53.8104 23.8271 53.8104C22.9497 53.8104 22.1247 53.4687 21.5042 52.8482L3.14978 34.4936C2.52919 33.8732 2.1875 33.0481 2.1875 32.1707C2.1875 31.2933 2.52919 30.4683 3.14978 29.8478L14.9397 18.0579C15.3669 17.6308 15.3669 16.9382 14.9397 16.511C14.5125 16.0839 13.8202 16.0839 13.3929 16.511L1.60289 28.3009C0.569297 29.3345 0 30.7089 0 32.1707C0 33.6325 0.569297 35.0069 1.60289 36.0405L19.9573 54.3951C21.0243 55.4619 22.4256 55.9955 23.8271 55.9955C25.2287 55.9955 26.63 55.4619 27.6969 54.3951L54.3868 27.7051C55.4197 26.6722 55.9888 25.2989 55.9897 23.8382L56 5.35057C56.0002 5.0605 55.885 4.78225 55.6801 4.57707ZM46.4954 12.7453C46.0623 13.1784 45.4864 13.417 44.874 13.417C44.2614 13.417 43.6857 13.1784 43.2526 12.7453C42.3584 11.8513 42.3584 10.3965 43.2526 9.50244C43.6997 9.05532 44.2867 8.83186 44.874 8.83186C45.0952 8.83186 45.3162 8.86369 45.53 8.92713L44.2676 10.1895C43.8405 10.6166 43.8405 11.3092 44.2676 11.7364C44.4812 11.95 44.7611 12.0568 45.041 12.0568C45.3208 12.0568 45.6007 11.95 45.8143 11.7364L47.0732 10.4775C47.3006 11.2562 47.1082 12.1325 46.4954 12.7453Z" fill="#FFAC18"/>
<path d="M46.7206 22.0246L33.9742 9.27804C32.2857 7.5895 29.538 7.58972 27.8497 9.27804L7.67869 29.4492C6.86067 30.2671 6.41016 31.3546 6.41016 32.5114C6.41016 33.6681 6.86056 34.7557 7.67858 35.5736L20.4251 48.32C21.2432 49.138 22.3306 49.5885 23.4873 49.5885C24.6441 49.5885 25.7317 49.1381 26.5495 48.3201L46.7206 28.1489C47.5387 27.3309 47.9891 26.2435 47.9891 25.0868C47.9891 23.93 47.5387 22.8425 46.7206 22.0246ZM45.1737 26.602L25.0027 46.7734C24.598 47.1781 24.0598 47.401 23.4874 47.401C22.9151 47.401 22.3768 47.1781 21.9721 46.7733L9.22547 34.0269C8.82067 33.6221 8.59777 33.0839 8.59777 32.5115C8.59766 31.939 8.82067 31.4008 9.22547 30.9961L29.3966 10.8249C29.8144 10.4071 30.3632 10.1982 30.912 10.1982C31.4607 10.1982 32.0096 10.4072 32.4273 10.8249L45.1737 23.5714C45.5785 23.9762 45.8015 24.5143 45.8015 25.0868C45.8015 25.6591 45.5785 26.1974 45.1737 26.602Z" fill="#FFAC18"/>
<path d="M35.1459 23.524L31.4855 20.0426C31.1081 19.6836 30.5458 19.6619 30.2299 19.9941L25.8991 24.5476L25.1184 23.8052C24.7409 23.4462 24.1787 23.4245 23.8627 23.7567C23.5467 24.089 23.5966 24.6494 23.974 25.0084L24.7547 25.7509L23.4476 27.1252L22.6669 26.3827C22.2894 26.0237 21.7272 26.002 21.4112 26.3343C21.0952 26.6665 21.1451 27.227 21.5225 27.586L22.3032 28.3284L21.0368 29.66C20.7208 29.9922 20.7706 30.5527 21.148 30.9117C21.5255 31.2707 22.0877 31.2923 22.4037 30.9601L23.6701 29.6285L26.6471 32.4599C27.0246 32.8189 27.5868 32.8406 27.9028 32.5083C28.2188 32.1761 28.1689 31.6157 27.7915 31.2567L24.8145 28.4253L26.1216 27.051L29.0986 29.8823C31.0902 31.7765 34.0668 31.8913 35.7341 30.1383C37.4425 28.3419 37.0954 25.378 35.1459 23.524ZM30.243 28.6791L27.266 25.8477L31.0246 21.8958L34.0016 24.7272C35.2319 25.8974 35.4156 27.7358 34.3671 28.8382C33.3308 29.9277 31.4808 29.8564 30.243 28.6791Z" fill="#FFAC18"/>
<path d="M24.5942 40.016L18.9766 34.3983C18.5495 33.9715 17.8571 33.9713 17.4297 34.3983C17.0026 34.8254 17.0026 35.518 17.4297 35.9452L23.0474 41.5629C23.261 41.7764 23.5409 41.8833 23.8208 41.8833C24.1007 41.8833 24.3806 41.7764 24.5942 41.5629C25.0213 41.1358 25.0213 40.4432 24.5942 40.016Z" fill="#FFAC18"/>
<path d="M15.9812 31.4025C15.7779 31.1992 15.4966 31.082 15.208 31.082C14.9204 31.082 14.6393 31.1991 14.4347 31.4025C14.2313 31.6059 14.1143 31.8881 14.1143 32.1769C14.1143 32.4645 14.2312 32.7467 14.4347 32.9502C14.6382 33.1536 14.9204 33.2706 15.208 33.2706C15.4968 33.2706 15.7779 33.1536 15.9812 32.9502C16.1857 32.7456 16.3027 32.4645 16.3027 32.1769C16.3027 31.8881 16.1857 31.607 15.9812 31.4025Z" fill="#FFAC18"/>
</svg>
