<svg width="150" height="150" viewBox="0 0 150 150" fill="none" xmlns="http://www.w3.org/2000/svg">
<path d="M108.541 83.4472L96.4919 69.7957V17.6172H104.357V10H44.6425V17.6172H52.5078V69.7957L40.4591 83.4472C27.5716 98.0496 20.6651 116.805 21.0125 136.259L21.0792 140H127.921L127.988 136.259C128.334 116.805 121.428 98.0496 108.541 83.4472ZM28.6775 132.383C29.247 116.181 35.3904 100.716 46.1884 88.4814L60.1419 72.6714V17.6172H88.8579V72.6714L102.812 88.4814C113.609 100.716 119.752 116.181 120.322 132.383H28.6775Z" fill="#E5E5E5"/>
<path d="M79 70.9923L72 71L72.0088 79L79.0088 78.9923L79 70.9923Z" fill="#E5E5E5"/>
<path d="M75 49.9923L68 50L68.0088 58L75.0088 57.9923L75 49.9923Z" fill="#E5E5E5"/>
<path d="M79 28.9923L72 29L72.0088 37L79.0088 36.9923L79 28.9923Z" fill="#E5E5E5"/>
<path d="M109.856 119.332C107.479 109.637 102.694 100.539 96.0201 93.0214L90.6739 87H56.3261L50.9801 93.0212C44.3059 100.539 39.5215 109.637 37.1445 119.332L36 124H111L109.856 119.332ZM45.915 116.449C48.241 109.695 51.9157 103.393 56.6933 98.0119L59.7659 94.551H87.2341L90.3064 98.0119C95.084 103.393 98.7588 109.695 101.085 116.449H45.915Z" fill="#E5E5E5"/>
</svg>
