<svg width="56" height="56" viewBox="0 0 56 56" fill="none" xmlns="http://www.w3.org/2000/svg">
<path d="M13.0668 36.9336C9.97838 36.9336 7.4668 39.4452 7.4668 42.5336C7.4668 45.622 9.97838 48.1336 13.0668 48.1336C16.1552 48.1336 18.6668 45.622 18.6668 42.5336C18.6668 39.4452 16.1551 36.9336 13.0668 36.9336ZM13.0668 46.2669C11.0078 46.2669 9.3335 44.5925 9.3335 42.5336C9.3335 40.4746 11.0079 38.8003 13.0668 38.8003C15.1257 38.8003 16.8001 40.4747 16.8001 42.5336C16.8001 44.5925 15.1257 46.2669 13.0668 46.2669Z" fill="#FFAC18"/>
<path d="M44.7992 36.9336C41.7108 36.9336 39.1992 39.4452 39.1992 42.5336C39.1992 45.622 41.7108 48.1336 44.7992 48.1336C47.8876 48.1336 50.3992 45.622 50.3992 42.5336C50.3992 39.4452 47.8876 36.9336 44.7992 36.9336ZM44.7992 46.2669C42.7402 46.2669 41.0659 44.5925 41.0659 42.5336C41.0659 40.4746 42.7403 38.8003 44.7992 38.8003C46.8582 38.8003 48.5325 40.4747 48.5325 42.5336C48.5325 44.5925 46.8582 46.2669 44.7992 46.2669Z" fill="#FFAC18"/>
<path d="M55.8517 31.7608L47.4517 18.694C47.28 18.4271 46.9841 18.2656 46.6667 18.2656H36.4001C35.884 18.2656 35.4668 18.6838 35.4668 19.1989V42.5322C35.4668 43.0484 35.884 43.4655 36.4001 43.4655H40.1334V41.5988H37.3334V20.1323H46.1571L54.1334 32.54V41.599H49.4667V43.4656H55.0667C55.5828 43.4656 56 43.0485 56 42.5323V32.2656C56.0001 32.0873 55.9488 31.9109 55.8517 31.7608Z" fill="#FFAC18"/>
<path d="M41.0668 30.4V23.8667H48.5335V22H40.1335C39.6174 22 39.2002 22.4181 39.2002 22.9333V31.3333C39.2002 31.8494 39.6174 32.2666 40.1335 32.2666H54.1335V30.3999H41.0668V30.4Z" fill="#FFAC18"/>
<path d="M36.4 11.7324H0.933297C0.418141 11.7324 0 12.1506 0 12.6657V42.5324C0 43.0486 0.418141 43.4657 0.933297 43.4657H8.4V41.599H1.8667V13.599H35.4667V41.599H17.7333V43.4657H36.4C36.9161 43.4657 37.3333 43.0486 37.3333 42.5324V12.6657C37.3333 12.1506 36.9161 11.7324 36.4 11.7324Z" fill="#FFAC18"/>
<path d="M6.53359 37.8672H0.933594V39.7339H6.53359V37.8672Z" fill="#FFAC18"/>
<path d="M35.4663 37.8672H19.5996V39.7339H35.4663V37.8672Z" fill="#FFAC18"/>
<path d="M55.0663 37.8672H51.333V39.7339H55.0663V37.8672Z" fill="#FFAC18"/>
<path d="M36.4001 15.4648H3.7334V17.3315H36.4001V15.4648Z" fill="#FFAC18"/>
<path d="M14.0005 41.5996H12.1338V43.4663H14.0005V41.5996Z" fill="#FFAC18"/>
<path d="M45.7329 41.5996H43.8662V43.4663H45.7329V41.5996Z" fill="#FFAC18"/>
<path d="M16.8001 8H3.7334V9.8667H16.8001V8Z" fill="#FFAC18"/>
<path d="M1.8667 8H0V9.8667H1.8667V8Z" fill="#FFAC18"/>
</svg>
