<svg width="150" height="150" viewBox="0 0 150 150" fill="none" xmlns="http://www.w3.org/2000/svg">
<path d="M105.762 123.633V97.2656H150V62.1094H70.6055V52.8786C80.6225 50.8369 88.1836 41.9586 88.1836 31.3477V0H44.2383V31.3477C44.2383 41.9586 51.7994 50.8369 61.8164 52.8786V62.1094H39.307L0 71.8552V87.5198L39.307 97.2656H54.7062L63.4953 114.844H79.3945V123.633H88.1836V128.027C88.1836 140.143 98.0404 150 110.156 150C122.272 150 132.129 140.143 132.129 128.027V119.238C132.129 116.897 134.319 114.844 136.816 114.844H150V106.055H136.816C133.315 106.055 129.976 107.402 127.419 109.847C124.789 112.362 123.34 115.696 123.34 119.238V128.027C123.34 135.297 117.426 141.211 110.156 141.211C102.887 141.211 96.9727 135.297 96.9727 128.027V123.633H105.762ZM79.3945 8.78906V18.1641H53.0273V8.78906H79.3945ZM53.0273 31.3477V26.9531H79.3945V31.3477C79.3945 38.6169 73.4802 44.5312 66.2109 44.5312C58.9417 44.5312 53.0273 38.6169 53.0273 31.3477ZM96.9727 114.844H88.1836V97.2656H96.9727V114.844ZM44.2383 70.8984H114.551V88.4766H44.2383V70.8984ZM141.211 88.4766H123.34V70.8984H141.211V88.4766ZM8.78906 78.7308L35.4492 72.1207V87.2532L8.78906 80.6442V78.7308ZM68.9266 106.055L64.5321 97.2656H79.3945V106.055H68.9266Z" fill="#E5E5E5"/>
</svg>
