<svg width="56" height="56" viewBox="0 0 56 56" fill="none" xmlns="http://www.w3.org/2000/svg">
<g clip-path="url(#clip0)">
<path d="M51.8403 14.4285C51.8382 14.3985 51.833 14.3684 51.8278 14.3373C51.8088 14.2183 51.7691 14.1036 51.7106 13.9982V13.9909C51.7106 13.9836 51.6992 13.9795 51.6941 13.9722C51.6331 13.8768 51.5568 13.7924 51.468 13.7223C51.4461 13.7033 51.4233 13.6852 51.3995 13.6684C51.3809 13.6549 51.3653 13.6383 51.3456 13.6259L28.5309 0.144451C28.2053 -0.0480485 27.8007 -0.0480485 27.4752 0.144451L4.66049 13.6259C4.34367 13.8118 4.14871 14.1514 4.14819 14.5188V41.4816C4.14806 41.8483 4.34173 42.1878 4.65738 42.3745L27.4721 55.8559C27.4988 55.8689 27.5261 55.8803 27.554 55.8901C27.5841 55.9046 27.6131 55.9171 27.6442 55.9285C27.8717 56.0239 28.1281 56.0239 28.3556 55.9285C28.3868 55.9171 28.4158 55.9046 28.4459 55.8901C28.4737 55.8803 28.5011 55.8689 28.5278 55.8559L51.3425 42.3745C51.6581 42.1878 51.8518 41.8483 51.8517 41.4816V14.5188C51.8517 14.4876 51.8423 14.4586 51.8403 14.4285ZM20.5675 6.63316L29.5462 11.9386C30.0328 12.2407 30.6721 12.0911 30.9741 11.6046C31.2762 11.1179 31.1266 10.4786 30.6401 10.1766C30.6275 10.1688 30.6148 10.1613 30.6019 10.154L22.6074 5.4293L27.9999 2.2425L48.7758 14.5189L43.3833 17.7057L33.714 11.9916C33.2209 11.7001 32.5848 11.8636 32.2933 12.3567C32.0017 12.8498 32.1652 13.4859 32.6583 13.7774L41.3445 18.9107L35.9519 22.0975L15.175 9.82113L20.5675 6.63316ZM42.3452 20.7275V27.6528L36.9879 30.8188V23.8935L42.3452 20.7275ZM49.7776 40.8894L29.037 53.1451V49.7778C29.037 49.2051 28.5726 48.7408 27.9999 48.7408C27.4272 48.7408 26.9629 49.2051 26.9629 49.7778V53.1451L6.22226 40.8894V15.1109L13.1362 11.025L33.911 23.3024L27.9999 26.7951L9.22343 15.6989C8.73032 15.4074 8.09423 15.5708 7.8027 16.0639C7.51116 16.557 7.67462 17.1931 8.16773 17.4847L26.9629 28.5923V45.6297C26.9629 46.2024 27.4272 46.6668 27.9999 46.6668C28.5726 46.6668 29.037 46.2024 29.037 45.6297V28.5923L34.9138 25.1193V32.6357C34.9137 33.2084 35.3779 33.6729 35.9506 33.673C36.1364 33.673 36.3188 33.6232 36.4787 33.5286L43.9101 29.1409C44.2257 28.9542 44.4194 28.6147 44.4193 28.248V19.5027L49.7776 16.3356V40.8894Z" fill="#FFAD27"/>
<path d="M9.33342 34.2224C8.76072 34.2224 8.29639 34.6867 8.29639 35.2594V39.4076C8.29639 39.9803 8.76072 40.4446 9.33342 40.4446C9.90612 40.4446 10.3705 39.9803 10.3705 39.4076V35.2594C10.3705 34.6867 9.90612 34.2224 9.33342 34.2224Z" fill="#FFAD27"/>
<path d="M13.4816 36.2964C12.9089 36.2964 12.4446 36.7607 12.4446 37.3334V41.4815C12.4446 42.0542 12.9089 42.5185 13.4816 42.5185C14.0543 42.5185 14.5186 42.0542 14.5186 41.4815V37.3334C14.5186 36.7607 14.0543 36.2964 13.4816 36.2964Z" fill="#FFAD27"/>
</g>
<defs>
<clipPath id="clip0">
<rect width="56" height="56" fill="white"/>
</clipPath>
</defs>
</svg>
