<svg width="56" height="56" viewBox="0 0 56 56" fill="none" xmlns="http://www.w3.org/2000/svg">
<g clip-path="url(#clip0)">
<path d="M37.0202 24.018C38.0395 23.1261 38.6242 21.8381 38.6242 20.484V17.493C39.6614 17.493 40.5024 16.652 40.5024 15.6148V13.7366C40.5024 12.6994 39.6614 11.8584 38.6242 11.8584H17.9641C16.9269 11.8584 16.0859 12.6994 16.0859 13.7366V15.6148C16.0859 16.652 16.9269 17.493 17.9641 17.493V20.484C17.9641 21.8381 18.5488 23.1261 19.5681 24.018L25.4769 29.1885V30.2138L19.5681 35.3848C18.5488 36.2762 17.9641 37.5642 17.9641 38.9183V41.9094C16.9269 41.9094 16.0859 42.7503 16.0859 43.7875V45.6657C16.0859 46.703 16.9269 47.5439 17.9641 47.5439H38.6242C39.6614 47.5439 40.5024 46.703 40.5024 45.6657V43.7875C40.5024 42.7503 39.6614 41.9094 38.6242 41.9094V38.9183C38.6242 37.5642 38.0395 36.2762 37.0202 35.3848L31.1114 30.2138V29.1885L37.0202 24.018ZM17.9641 13.7366H38.6242V15.6148H17.9641V13.7366ZM19.8423 17.493H36.746V20.484C36.7451 21.1003 36.5415 21.6992 36.1668 22.1884H20.4219C20.0468 21.6992 19.8432 21.1003 19.8423 20.484V17.493ZM38.6242 45.6657H17.9641V43.7875H38.6242V45.6657ZM29.8747 31.6284L35.7835 36.7989C36.3947 37.3336 36.7455 38.1062 36.746 38.9183V41.9094H19.8423V38.9183C19.8428 38.1062 20.1936 37.3336 20.8048 36.7989L26.7136 31.6284C27.1217 31.2712 27.3555 30.7558 27.3551 30.2138V29.1885C27.3555 28.6465 27.1217 28.1311 26.7136 27.7744L22.4766 24.0666H34.1167L29.8793 27.7744C29.4698 28.1302 29.2342 28.6461 29.2332 29.1885V30.2138C29.2332 30.7558 29.4671 31.2712 29.8747 31.6284Z" fill="#FFAC18"/>
<path d="M27.3555 33.4576C27.3555 32.939 27.7759 32.5186 28.2946 32.5186C28.8132 32.5186 29.2336 32.939 29.2336 33.4576C29.2336 33.9763 28.8132 34.3967 28.2946 34.3967C27.7759 34.3967 27.3555 33.9763 27.3555 33.4576Z" fill="#FFAC18"/>
<path d="M27.3555 37.2145C27.3555 36.6958 27.7759 36.2754 28.2946 36.2754C28.8132 36.2754 29.2336 36.6958 29.2336 37.2145C29.2336 37.7331 28.8132 38.1536 28.2946 38.1536C27.7759 38.1536 27.3555 37.7331 27.3555 37.2145Z" fill="#FFAC18"/>
<path d="M52.7115 29.7016C52.7138 42.9149 42.2045 53.7323 28.9967 54.112C15.7889 54.4917 4.67565 44.2956 3.91905 31.1038C3.162 17.9125 13.0367 6.5122 26.201 5.37915L23.9536 8.05749L25.3925 9.26437L29.0146 4.94445C29.3479 4.5469 29.2966 3.95446 28.899 3.6211L24.5791 0L23.3754 1.44349L25.8534 3.52435C11.7097 4.84357 1.17056 17.1577 2.05141 31.3358C2.93181 45.5139 14.9144 56.429 29.1127 55.9874C43.311 55.5459 54.592 43.9067 54.5897 29.7016H52.7115Z" fill="#FFAC18"/>
<path d="M50.8663 20.3727C51.0569 20.8333 51.5734 21.0698 52.041 20.8971L52.0749 20.8846C52.5616 20.7048 52.8123 20.1636 52.6153 19.6837C52.6063 19.6616 52.5972 19.6396 52.5881 19.6176C52.39 19.139 51.8318 18.9338 51.3607 19.1493L51.3259 19.1652C50.872 19.3728 50.6755 19.9115 50.8663 20.3727Z" fill="#FFAC18"/>
<path d="M39.8999 7.15313C40.1368 6.69208 39.956 6.1247 39.487 5.90391C39.4661 5.89408 39.4452 5.88428 39.4243 5.87451C38.9546 5.65485 38.4026 5.87878 38.1996 6.35596L38.1861 6.38769C37.9905 6.84743 38.2008 7.37523 38.6532 7.58733C39.106 7.79965 39.6558 7.62815 39.8844 7.18332L39.8999 7.15313Z" fill="#FFAC18"/>
<path d="M52.5986 27.3606C52.646 27.8577 53.0725 28.2405 53.571 28.2113L53.6067 28.2092C54.126 28.1788 54.5242 27.7327 54.4748 27.2148C54.4727 27.1927 54.4706 27.1706 54.4684 27.1484C54.4179 26.6322 53.9435 26.2722 53.4294 26.3407L53.3935 26.3455C52.8982 26.4114 52.5511 26.8632 52.5986 27.3606Z" fill="#FFAC18"/>
<path d="M51.9921 23.8003C52.1124 24.2848 52.5901 24.6 53.0788 24.4976L53.113 24.4905C53.6207 24.3841 53.9476 23.8856 53.8234 23.3819C53.8178 23.3593 53.8122 23.3368 53.8066 23.3142C53.6811 22.8113 53.1596 22.5243 52.6615 22.6677L52.6275 22.6775C52.1474 22.8156 51.8717 23.3154 51.9921 23.8003Z" fill="#FFAC18"/>
<path d="M47.1582 14.1955C47.4763 14.5797 48.0411 14.6572 48.4376 14.3546L48.467 14.3321C48.8779 14.0185 48.9583 13.4301 48.6305 13.0304C48.6147 13.0111 48.5989 12.9918 48.583 12.9726C48.2537 12.5735 47.6605 12.5392 47.2731 12.8821L47.2438 12.908C46.8699 13.239 46.8397 13.8109 47.1582 14.1955Z" fill="#FFAC18"/>
<path d="M49.2391 17.1426C49.4968 17.5707 50.0469 17.7329 50.4843 17.4914L50.5142 17.475C50.9677 17.2245 51.1333 16.6525 50.8672 16.208C50.8557 16.1886 50.8441 16.1693 50.8325 16.15C50.5649 15.7054 49.9816 15.5834 49.547 15.8669L49.5166 15.8867C49.0991 16.159 48.982 16.7156 49.2391 17.1426Z" fill="#FFAC18"/>
<path d="M36.4438 5.68475C36.6104 5.19339 36.3474 4.65844 35.8504 4.50953C35.8281 4.50285 35.8058 4.49621 35.7835 4.48959C35.2864 4.34205 34.7736 4.64547 34.644 5.14758L34.6354 5.18082C34.5105 5.66474 34.7958 6.15493 35.2748 6.29763C35.7532 6.44017 36.2724 6.19051 36.4326 5.71773L36.4438 5.68475Z" fill="#FFAC18"/>
<path d="M32.8108 4.74621C32.9027 4.23552 32.5628 3.74561 32.0492 3.67211C32.027 3.66894 32.0048 3.66579 31.9826 3.66267C31.4689 3.59044 31.0064 3.9666 30.9527 4.48264L30.949 4.51829C30.8974 5.01479 31.2592 5.4573 31.7535 5.52718C32.2472 5.59699 32.7163 5.27243 32.8045 4.78161L32.8108 4.74621Z" fill="#FFAC18"/>
<path d="M43.0977 9.11501C43.401 8.69404 43.3061 8.10533 42.8745 7.81735C42.8555 7.80467 42.8365 7.79201 42.8174 7.77939C42.3855 7.49277 41.8066 7.63276 41.5357 8.07478L41.5166 8.10602C41.2561 8.53098 41.3859 9.08222 41.8005 9.35887C42.2157 9.63589 42.7845 9.54966 43.0762 9.14475L43.0977 9.11501Z" fill="#FFAC18"/>
<path d="M45.9755 11.5265C46.3363 11.1545 46.329 10.5594 45.945 10.2114C45.9277 10.1958 45.9104 10.1802 45.8931 10.1646C45.5082 9.81774 44.9156 9.871 44.5823 10.2677L44.5601 10.2942C44.2384 10.6772 44.2883 11.2462 44.6594 11.5815C45.0302 11.9165 45.6032 11.9103 45.9512 11.5515L45.9755 11.5265Z" fill="#FFAC18"/>
</g>
<defs>
<clipPath id="clip0">
<rect width="56" height="56" fill="white"/>
</clipPath>
</defs>
</svg>
