<svg width="56" height="56" viewBox="0 0 56 56" fill="none" xmlns="http://www.w3.org/2000/svg">
<path d="M55.8863 18.186C55.8925 15.9811 55.4458 13.7969 54.572 11.7598C53.6982 9.72274 52.4146 7.87324 50.7956 6.31839L50.3787 5.91575C48.7685 4.3524 46.8531 3.11297 44.7436 2.26919C42.634 1.42541 40.372 0.994047 38.0887 1.00006C37.0956 1.0013 36.1358 1.34521 35.3823 1.96975C34.6288 2.59429 34.1312 3.45832 33.9795 4.40594H33.9793L32.226 16.0167H29.3579C28.785 16.0164 28.2264 16.1893 27.7605 16.5112C27.2946 16.8331 26.9447 17.2877 26.76 17.8114C26.5754 18.3351 26.5651 18.9014 26.7307 19.431C26.8964 19.9605 27.2295 20.4267 27.6835 20.7641L25.2818 23.0834H22.0398C21.4669 23.0831 20.9083 23.256 20.4424 23.5779C19.9764 23.8997 19.6266 24.3544 19.4419 24.8781C19.2572 25.4017 19.2469 25.9681 19.4126 26.4976C19.5782 27.0272 19.9114 27.4934 20.3654 27.8308L17.9636 30.15H14.7216C14.1487 30.1497 13.5901 30.3226 13.1242 30.6445C12.6583 30.9664 12.3084 31.4211 12.1237 31.9447C11.939 32.4684 11.9288 33.0347 12.0944 33.5643C12.26 34.0939 12.5932 34.5601 13.0472 34.8975L10.6454 37.2167H7.40342C6.8293 37.2164 6.26955 37.3901 5.80307 37.7133C5.33659 38.0365 4.98688 38.4929 4.80323 39.0181C4.61958 39.5434 4.61124 40.1111 4.7794 40.6412C4.94755 41.1712 5.28371 41.637 5.74052 41.9728C5.70203 42.0254 5.66959 42.0819 5.64379 42.1412L4.72268 44.2833H4.65911C4.11141 44.283 3.57614 44.4409 3.12226 44.737C2.66838 45.033 2.31669 45.4534 2.1125 45.9442C1.90831 46.4349 1.86098 46.9735 1.9766 47.4904C2.09223 48.0074 2.3655 48.4791 2.76123 48.8447L1.06993 52.7779C1.0005 52.9393 0.982255 53.1171 1.0175 53.2886C1.05274 53.4601 1.13989 53.6176 1.26791 53.7412C1.39594 53.8649 1.55907 53.949 1.73667 53.9831C1.91426 54.0171 2.09832 53.9995 2.26555 53.9325L13.1125 49.5833H16.5511C17.124 49.5836 17.6826 49.4107 18.1485 49.0889C18.6145 48.767 18.9643 48.3123 19.149 47.7887C19.3337 47.265 19.3439 46.6986 19.1783 46.1691C19.0127 45.6395 18.6795 45.1733 18.2255 44.8359L20.6273 42.5167H23.8693C24.4422 42.517 25.0008 42.3441 25.4667 42.0222C25.9326 41.7003 26.2825 41.2457 26.4672 40.722C26.6519 40.1983 26.6621 39.632 26.4965 39.1024C26.3309 38.5728 25.9977 38.1067 25.5437 37.7693L27.9454 35.45H31.1875C31.7603 35.4503 32.3189 35.2774 32.7849 34.9555C33.2508 34.6337 33.6006 34.179 33.7853 33.6553C33.97 33.1317 33.9803 32.5653 33.8146 32.0358C33.649 31.5062 33.3158 31.04 32.8618 30.7026L35.2636 28.3834H38.5056C39.0516 28.3837 39.5853 28.2267 40.0383 27.9325C40.4913 27.6382 40.843 27.22 41.0484 26.7316C41.2538 26.2431 41.3036 25.7065 41.1913 25.1906C41.079 24.6747 40.8098 24.2028 40.4182 23.8355L52.3592 22.154C53.3405 22.0074 54.2353 21.527 54.8821 20.7994C55.5288 20.0718 55.885 19.1449 55.8863 18.186ZM29.3579 17.7834H32.6381L34.4677 19.55H29.3579C29.1153 19.55 28.8826 19.457 28.7111 19.2913C28.5395 19.1257 28.4431 18.901 28.4431 18.6667C28.4431 18.4324 28.5395 18.2078 28.7111 18.0421C28.8826 17.8764 29.1153 17.7834 29.3579 17.7834ZM29.6988 21.3167H36.6761C36.857 21.3167 37.0339 21.2649 37.1843 21.1678C37.3347 21.0707 37.4519 20.9328 37.5212 20.7714C37.5904 20.61 37.6085 20.4324 37.5733 20.261C37.538 20.0897 37.4509 19.9323 37.323 19.8087L33.9884 16.5888L34.8991 10.5583C35.7619 12.9395 37.1716 15.1013 39.0224 16.8817L39.4394 17.2843C41.2831 19.0716 43.5218 20.4327 45.9877 21.2659L39.2884 22.2093C39.1545 22.2281 39.0265 22.2753 38.9138 22.3477C38.8011 22.42 38.7065 22.5157 38.6367 22.6277L38.1648 23.0834H27.8693L29.6988 21.3167ZM3.60867 51.481L4.42902 49.5733C4.50496 49.5795 4.58156 49.5833 4.65911 49.5833H8.34159L3.60867 51.481ZM16.5511 47.8167H4.65911C4.4165 47.8167 4.18383 47.7236 4.01227 47.558C3.84072 47.3923 3.74434 47.1676 3.74434 46.9333C3.74434 46.6991 3.84072 46.4744 4.01227 46.3087C4.18383 46.1431 4.4165 46.05 4.65911 46.05H16.5511C16.7937 46.05 17.0264 46.1431 17.198 46.3087C17.3695 46.4744 17.4659 46.6991 17.4659 46.9333C17.4659 47.1676 17.3695 47.3923 17.198 47.558C17.0264 47.7236 16.7937 47.8167 16.5511 47.8167ZM16.2102 44.2833H6.70367L7.26384 42.9806L7.74429 42.5167H18.0398L16.2102 44.2833ZM23.8693 40.75H7.40342C7.16081 40.75 6.92814 40.657 6.75658 40.4913C6.58503 40.3256 6.48865 40.101 6.48865 39.8667C6.48865 39.6324 6.58503 39.4077 6.75658 39.2421C6.92814 39.0764 7.16081 38.9833 7.40342 38.9833H23.8693C24.1119 38.9833 24.3446 39.0764 24.5161 39.2421C24.6877 39.4077 24.7841 39.6324 24.7841 39.8667C24.7841 40.101 24.6877 40.3256 24.5161 40.4913C24.3446 40.657 24.1119 40.75 23.8693 40.75ZM23.5284 37.2167H13.233L15.0625 35.45H25.3579L23.5284 37.2167ZM31.1875 33.6834H14.7216C14.479 33.6834 14.2463 33.5903 14.0747 33.4246C13.9032 33.259 13.8068 33.0343 13.8068 32.8C13.8068 32.5658 13.9032 32.3411 14.0747 32.1754C14.2463 32.0098 14.479 31.9167 14.7216 31.9167H31.1875C31.4301 31.9167 31.6627 32.0098 31.8343 32.1754C32.0059 32.3411 32.1022 32.5658 32.1022 32.8C32.1022 33.0343 32.0059 33.259 31.8343 33.4246C31.6627 33.5903 31.4301 33.6834 31.1875 33.6834ZM30.8465 30.15H20.5511L22.3807 28.3834H32.6761L30.8465 30.15ZM38.5056 26.6167H22.0398C21.7971 26.6167 21.5645 26.5236 21.3929 26.358C21.2214 26.1923 21.125 25.9676 21.125 25.7334C21.125 25.4991 21.2214 25.2744 21.3929 25.1088C21.5645 24.9431 21.7971 24.85 22.0398 24.85H38.5056C38.7482 24.85 38.9809 24.9431 39.1525 25.1088C39.324 25.2744 39.4204 25.4991 39.4204 25.7334C39.4204 25.9676 39.324 26.1923 39.1525 26.358C38.9809 26.5236 38.7482 26.6167 38.5056 26.6167ZM51.7294 20.4334C49.6863 20.4388 47.6625 20.0528 45.775 19.2978C43.8875 18.5429 42.1738 17.4339 40.7331 16.035L40.3162 15.6324C38.8676 14.2413 37.7191 12.5865 36.9373 10.7638C36.1554 8.94119 35.7557 6.9869 35.7613 5.01409C35.762 4.41826 36.0075 3.84704 36.4438 3.42572C36.8801 3.00441 37.4716 2.76741 38.0887 2.76673C40.1317 2.76133 42.1555 3.14729 44.043 3.90227C45.9305 4.65724 47.6442 5.76624 49.0849 7.16506L49.5019 7.56769C50.9505 8.95884 52.0989 10.6136 52.8808 12.4363C53.6626 14.2589 54.0623 16.2132 54.0567 18.186C54.056 18.7818 53.8106 19.3531 53.3743 19.7744C52.938 20.1957 52.3464 20.4327 51.7294 20.4334Z" fill="#FFAD27"/>
<path d="M49.2135 8.69968C49.2691 8.54866 49.2771 8.3866 49.2367 8.23166C49.1964 8.07672 49.1092 7.93503 48.9849 7.82246C48.8606 7.70989 48.7042 7.63089 48.5331 7.59432C48.362 7.55775 48.1831 7.56504 48.0164 7.61539L45.6165 8.33996L40.3238 5.144C40.1418 5.03407 39.9233 4.98465 39.7056 5.00417C39.4879 5.02368 39.2844 5.11092 39.1297 5.25104C38.975 5.39116 38.8787 5.5755 38.8571 5.77269C38.8356 5.96989 38.8902 6.16775 39.0115 6.33261L42.54 11.1266L41.74 13.3003C41.6844 13.4513 41.6764 13.6134 41.7168 13.7683C41.7571 13.9233 41.8444 14.065 41.9686 14.1775C42.0929 14.2901 42.2493 14.3691 42.4204 14.4057C42.5915 14.4423 42.7704 14.435 42.9371 14.3846L45.337 13.66L50.6297 16.856C50.8117 16.9659 51.0302 17.0153 51.2479 16.9958C51.4656 16.9763 51.6691 16.8891 51.8238 16.749C51.9785 16.6088 52.0748 16.4245 52.0964 16.2273C52.1179 16.0301 52.0633 15.8322 51.942 15.6674L48.4135 10.8734L49.2135 8.69968ZM46.0017 12.0011C45.8817 11.9287 45.7452 11.8821 45.6023 11.8647C45.4595 11.8474 45.3142 11.8598 45.1774 11.9011L44.1341 12.2161L44.4819 11.2711C44.5275 11.1473 44.5412 11.0156 44.5221 10.8863C44.5029 10.7569 44.4514 10.6332 44.3715 10.5246L43.2109 8.94766L44.9518 9.99889C45.0718 10.0712 45.2084 10.1179 45.3512 10.1352C45.494 10.1525 45.6393 10.1401 45.7761 10.0989L46.8194 9.78387L46.4716 10.7289C46.426 10.8527 46.4123 10.9844 46.4314 11.1137C46.4506 11.2431 46.5021 11.3668 46.582 11.4754L47.7426 13.0523L46.0017 12.0011Z" fill="#FFAD27"/>
</svg>
