<svg width="56" height="56" viewBox="0 0 56 56" fill="none" xmlns="http://www.w3.org/2000/svg">
<path d="M53.8959 30.4941C53.4111 25.6173 51.2324 21.0198 47.7609 17.5482C44.7942 14.5816 41.1631 12.6753 37.3423 11.8276V9.14781C38.9029 8.75957 40.0628 7.34701 40.0628 5.66802C40.0628 3.69067 38.4542 2.08203 36.4768 2.08203H28.883C26.9056 2.08203 25.297 3.69067 25.297 5.66802C25.297 7.3469 26.4569 8.75947 28.0174 9.14781V11.8351C24.2083 12.6863 20.5892 14.5901 17.631 17.5483C16.9836 18.1957 16.3866 18.8748 15.8402 19.5806C15.8137 19.5786 15.7872 19.5766 15.7602 19.5766H8.2443C7.6619 19.5766 7.1896 20.0488 7.1896 20.6313C7.1896 21.2138 7.6619 21.686 8.2443 21.686H14.405C13.6317 22.9807 13.0082 24.3403 12.5336 25.7399H1.0547C0.472296 25.7399 0 26.2121 0 26.7946C0 27.3771 0.472296 27.8493 1.0547 27.8493H11.9376C11.6336 29.1836 11.4591 30.5415 11.4141 31.9033H6.75011C6.1677 31.9033 5.6954 32.3754 5.6954 32.958C5.6954 33.5405 6.1677 34.0127 6.75011 34.0127H11.4478C11.5368 35.3779 11.7563 36.7359 12.1063 38.0666H5.27352C4.69111 38.0666 4.21882 38.5388 4.21882 39.1213C4.21882 39.7038 4.69111 40.176 5.27352 40.176H12.7794C13.8141 42.9131 15.4311 45.4785 17.631 47.6784C21.1058 51.1532 25.7081 53.3324 30.5899 53.8147C31.2866 53.8835 31.9839 53.9176 32.6802 53.9176C36.7959 53.9176 40.8592 52.7265 44.3071 50.4812C44.7952 50.1633 44.9332 49.51 44.6153 49.0218C44.2975 48.5337 43.6441 48.3957 43.156 48.7136C35.6088 53.6282 25.5013 52.5655 19.1225 46.1868C11.6381 38.7024 11.6381 26.5245 19.1225 19.04C26.6068 11.5557 38.7847 11.5557 46.2692 19.04C52.6395 25.4104 53.708 35.5093 48.8096 43.0527C48.4923 43.5413 48.6312 44.1946 49.1197 44.5117C49.6084 44.829 50.2615 44.6901 50.5786 44.2015C53.1958 40.171 54.3739 35.303 53.8959 30.4941ZM27.4064 5.66813C27.4064 4.8539 28.0687 4.19154 28.883 4.19154H36.4768C37.2911 4.19154 37.9534 4.8539 37.9534 5.66813C37.9534 6.48236 37.2911 7.14472 36.4768 7.14472H36.2876H29.0721H28.883C28.0687 7.14472 27.4064 6.48226 27.4064 5.66813ZM30.1268 11.4725V9.25412H35.2329V11.4687C33.5374 11.267 31.822 11.2683 30.1268 11.4725Z" fill="#FFAC18"/>
<path d="M47.0156 45.877C46.7372 45.877 46.4661 45.9898 46.2701 46.186C46.0728 46.3821 45.9609 46.6543 45.9609 46.9316C45.9609 47.209 46.0728 47.4811 46.2701 47.6773C46.4661 47.8745 46.7373 47.9863 47.0156 47.9863C47.293 47.9863 47.5641 47.8745 47.7613 47.6773C47.9575 47.4811 48.0703 47.209 48.0703 46.9316C48.0703 46.6543 47.9576 46.3821 47.7613 46.186C47.5641 45.9898 47.2929 45.877 47.0156 45.877Z" fill="#FFAC18"/>
<path d="M32.6965 16.252C23.6748 16.252 16.335 23.5916 16.335 32.6135C16.335 41.6353 23.6748 48.975 32.6965 48.975C41.7182 48.975 49.058 41.6353 49.058 32.6135C49.058 23.5916 41.7182 16.252 32.6965 16.252ZM32.6965 46.8656C24.8378 46.8656 18.4444 40.4721 18.4444 32.6135C18.4444 24.7549 24.8378 18.3614 32.6965 18.3614C40.5552 18.3614 46.9486 24.7549 46.9486 32.6135C46.9486 40.4721 40.5552 46.8656 32.6965 46.8656Z" fill="#FFAC18"/>
<path d="M39.3682 24.4495L34.1442 29.6734C33.7074 29.4574 33.216 29.3353 32.6966 29.3353C32.177 29.3353 31.6857 29.4574 31.2489 29.6734L28.9109 27.3354C28.4989 26.9235 27.8313 26.9235 27.4192 27.3354C27.0074 27.7473 27.0074 28.4151 27.4192 28.827L29.7572 31.1649C29.5411 31.6018 29.4192 32.0932 29.4192 32.6126C29.4192 34.4197 30.8893 35.89 32.6966 35.89C34.5038 35.89 35.9739 34.4197 35.9739 32.6126C35.9739 32.0932 35.8519 31.6018 35.6359 31.1649L40.7065 26.0943L40.8597 25.9411C41.2716 25.5292 41.2716 24.8614 40.8597 24.4495C40.4479 24.0377 39.7803 24.0377 39.3682 24.4495ZM32.6966 33.7807C32.0526 33.7807 31.5286 33.2567 31.5286 32.6127C31.5286 31.9687 32.0526 31.4447 32.6966 31.4447C33.3406 31.4447 33.8645 31.9687 33.8645 32.6127C33.8645 33.2567 33.3406 33.7807 32.6966 33.7807Z" fill="#FFAC18"/>
<path d="M43.9733 31.5723H42.9961C42.4137 31.5723 41.9414 32.0444 41.9414 32.627C41.9414 33.2095 42.4137 33.6816 42.9961 33.6816H43.9733C44.5557 33.6816 45.028 33.2095 45.028 32.627C45.028 32.0444 44.5557 31.5723 43.9733 31.5723Z" fill="#FFAC18"/>
<path d="M22.396 31.5449H21.4189C20.8365 31.5449 20.3643 32.0171 20.3643 32.5996C20.3643 33.1821 20.8365 33.6543 21.4189 33.6543H22.396C22.9784 33.6543 23.4507 33.1821 23.4507 32.5996C23.4507 32.0171 22.9784 31.5449 22.396 31.5449Z" fill="#FFAC18"/>
<path d="M32.709 23.3677C33.2914 23.3677 33.7637 22.8955 33.7637 22.313V21.3359C33.7637 20.7534 33.2914 20.2812 32.709 20.2812C32.1266 20.2812 31.6543 20.7534 31.6543 21.3359V22.313C31.6543 22.8955 32.1266 23.3677 32.709 23.3677Z" fill="#FFAC18"/>
<path d="M32.6826 41.8594C32.1002 41.8594 31.6279 42.3316 31.6279 42.9141V43.8911C31.6279 44.4736 32.1002 44.9458 32.6826 44.9458C33.265 44.9458 33.7373 44.4736 33.7373 43.8911V42.9141C33.7373 42.3316 33.265 41.8594 32.6826 41.8594Z" fill="#FFAC18"/>
<path d="M1.05469 38.0664C0.777305 38.0664 0.505195 38.1793 0.309023 38.3754C0.112852 38.5716 0 38.8437 0 39.1211C0 39.3995 0.112746 39.6706 0.309023 39.8668C0.505301 40.0629 0.777305 40.1758 1.05469 40.1758C1.33207 40.1758 1.60418 40.0629 1.80025 39.8668C1.99642 39.6706 2.10938 39.3985 2.10938 39.1211C2.10938 38.8437 1.99652 38.5716 1.80025 38.3754C1.60418 38.1793 1.33207 38.0664 1.05469 38.0664Z" fill="#FFAC18"/>
</svg>
