<svg width="56" height="56" viewBox="0 0 56 56" fill="none" xmlns="http://www.w3.org/2000/svg">
<path d="M50.9695 48.6495L45.0944 41.0963C46.9981 40.5275 48.6426 39.3099 49.7424 37.6552C51.126 35.2636 50.5003 32.3448 49.8949 29.5255C49.5289 28.0772 49.3098 26.5957 49.2413 25.1034C49.3096 23.6099 49.5285 22.127 49.8949 20.6775C50.4964 17.8563 51.126 14.9394 49.7424 12.5517C48.3095 10.0761 45.4246 9.15986 42.6342 8.27545C41.2452 7.89274 39.9 7.36593 38.6206 6.70359C37.4595 5.95048 36.3815 5.07669 35.4044 4.09669C33.3344 2.17531 30.9872 0 27.9999 0C25.0126 0 22.6654 2.17531 20.5944 4.09572C19.6176 5.07597 18.5399 5.95012 17.3792 6.70359C16.0999 7.3646 14.755 7.89009 13.3665 8.27159C10.5762 9.156 7.6912 10.0723 6.25837 12.5479C4.87478 14.9394 5.50044 17.8582 6.10582 20.6775C6.47187 22.1271 6.69056 23.6099 6.75851 25.1034C6.6902 26.597 6.47127 28.0799 6.10485 29.5294C5.50334 32.3506 4.87382 35.2674 6.25741 37.6552C7.35858 39.3106 9.00491 40.5277 10.9102 41.0953L5.03023 48.6486C4.70292 49.0695 4.77884 49.6761 5.19992 50.0034C5.4022 50.1607 5.65854 50.231 5.91272 50.1992L12.8162 49.337L14.5203 55.3C14.6201 55.6495 14.9078 55.9133 15.2647 55.9826C15.3252 55.9941 15.3866 56 15.4482 56C15.7463 56.0002 16.0278 55.8627 16.2109 55.6273L22.3767 47.6966C23.894 49.1737 25.8871 50.0635 27.9999 50.2069C30.1127 50.0635 32.1057 49.1737 33.6231 47.6966L39.7889 55.6244C39.9713 55.8608 40.2529 55.9995 40.5516 56C40.6132 56 40.6746 55.9941 40.7351 55.9826C41.0919 55.9133 41.3797 55.6495 41.4795 55.3L43.1836 49.3379L50.0871 50.2001C50.6162 50.2665 51.0989 49.8914 51.1653 49.3623C51.1972 49.1081 51.1268 48.8518 50.9695 48.6495ZM15.8537 52.9403L14.445 48.0103C14.314 47.5531 13.8694 47.2593 13.3974 47.3181L7.99051 47.9939L12.8364 41.7644L13.3704 41.9353C14.7576 42.3171 16.1011 42.8425 17.3792 43.5033C18.5402 44.2564 19.6182 45.1302 20.5953 46.1102L20.9275 46.4172L15.8537 52.9403ZM27.9999 48.2759C25.7695 48.2759 23.8935 46.5379 21.9065 44.6957C20.8255 43.6157 19.6314 42.6553 18.3447 41.831C16.9448 41.0982 15.4712 40.5156 13.9487 40.0931C11.3969 39.283 8.98596 38.5183 7.92775 36.6897C6.91782 34.943 7.4392 32.509 7.99244 29.931C8.39059 28.3501 8.62425 26.7324 8.68954 25.1034C8.62461 23.4745 8.39132 21.8568 7.99341 20.2759C7.44016 17.6989 6.91878 15.2648 7.92872 13.5172C8.99078 11.6886 11.3978 10.9239 13.9497 10.1138C15.4719 9.69114 16.9451 9.10857 18.3447 8.37586C19.631 7.55155 20.8249 6.5911 21.9055 5.51117C23.8935 3.66897 25.7695 1.93103 27.9999 1.93103C30.2302 1.93103 32.1062 3.66897 34.0933 5.51117C35.1743 6.59122 36.3684 7.55155 37.6551 8.37586C39.0549 9.10869 40.5286 9.69126 42.0511 10.1138C44.6029 10.9239 47.0138 11.6886 48.072 13.5172C49.082 15.2639 48.5606 17.6979 48.0073 20.2759C47.6092 21.8568 47.3755 23.4745 47.3102 25.1034C47.3752 26.7324 47.6085 28.3501 48.0064 29.931C48.5596 32.508 49.081 34.9421 48.0711 36.6897C47.009 38.5183 44.602 39.283 42.0501 40.0931C40.5278 40.5158 39.0547 41.0983 37.6551 41.831C36.3687 42.6553 35.1749 43.6158 34.0942 44.6957C32.1062 46.5379 30.2302 48.2759 27.9999 48.2759ZM42.6072 47.3181C42.1352 47.2593 41.6906 47.5531 41.5596 48.0103L40.1461 52.9403L35.0733 46.4182L35.4054 46.1112C36.3821 45.1309 37.4599 44.2568 38.6206 43.5033C39.8999 42.8423 41.2447 42.3168 42.6333 41.9353L43.1672 41.7644L48.0141 47.9939L42.6072 47.3181Z" fill="#FFAD27"/>
<path d="M27.9999 7.72414C18.4016 7.72414 10.6206 15.5051 10.6206 25.1034C10.6206 34.7018 18.4016 42.4828 27.9999 42.4828C37.5982 42.4828 45.3792 34.7018 45.3792 25.1034C45.3681 15.5097 37.5937 7.73536 27.9999 7.72414ZM27.9999 40.5517C19.4681 40.5517 12.5516 33.6352 12.5516 25.1034C12.5516 16.5717 19.4681 9.65517 27.9999 9.65517C36.5317 9.65517 43.4482 16.5717 43.4482 25.1034C43.4381 33.6311 36.5276 40.5416 27.9999 40.5517Z" fill="#FFAD27"/>
<path d="M39.1403 21.0705C38.777 20.5714 38.1972 20.2761 37.58 20.2759H31.6691L29.8346 14.6498C29.5016 13.6366 28.4104 13.0853 27.3972 13.4183C26.8144 13.6098 26.3572 14.067 26.1657 14.6498L24.336 20.2759H18.4203C17.3537 20.2754 16.4888 21.1394 16.4883 22.2059C16.4879 22.8239 16.7834 23.4045 17.2829 23.7681L22.068 27.244L20.2403 32.87C19.9106 33.8843 20.4656 34.9738 21.4798 35.3034C22.0679 35.4946 22.7119 35.3925 23.2121 35.0289L28.0001 31.554L32.7862 35.0299C33.4604 35.5308 34.3829 35.5308 35.0571 35.0299C35.7413 34.5436 36.0261 33.6665 35.7581 32.871L33.9303 27.244L38.7155 23.7681C39.5778 23.1405 39.768 21.9327 39.1403 21.0705ZM32.2272 26.095C31.8885 26.3411 31.747 26.7774 31.8767 27.1754L33.9217 33.4687L28.5679 29.5796C28.2296 29.334 27.7717 29.334 27.4334 29.5796L22.0796 33.4687L24.1236 27.1754C24.2529 26.7776 24.1114 26.3419 23.7731 26.096L18.4203 22.2069H25.037C25.4553 22.2069 25.8259 21.9375 25.9552 21.5397L28.0001 15.2465L30.0451 21.5388C30.1744 21.9365 30.545 22.2059 30.9633 22.2059L37.58 22.2069L32.2272 26.095Z" fill="#FFAD27"/>
</svg>
