<svg width="56" height="56" viewBox="0 0 56 56" fill="none" xmlns="http://www.w3.org/2000/svg">
<path d="M53.5719 16.8527L28.4385 2.11933C28.1742 1.96506 27.8492 1.95988 27.5815 2.10806L2.44809 15.9748C2.17164 16.1264 2 16.4176 2 16.7331V53.1331C2 53.6123 2.38827 53.9997 2.86663 53.9997H7.2C7.67836 53.9997 8.06663 53.6123 8.06663 53.1331V22.7998H47.9333V53.1332C47.9333 53.6124 48.3206 53.9998 48.7999 53.9998H53.1333C53.6125 53.9998 53.9999 53.6124 53.9999 53.1332V17.5998C54 17.2921 53.8371 17.0078 53.5719 16.8527ZM52.2666 52.2664H49.6666V21.9331C49.6666 21.4547 49.2793 21.0664 48.8 21.0664H7.2C6.72164 21.0664 6.33337 21.4547 6.33337 21.9331V52.2664H3.73337V17.2444L27.987 3.86306L52.2666 18.0963V52.2664Z" fill="#FFAD27"/>
<path d="M45.3335 41.8647H34.9335C34.4543 41.8647 34.0669 42.2521 34.0669 42.7314V53.1314C34.0669 53.6107 34.4543 53.998 34.9335 53.998H45.3335C45.8128 53.998 46.2002 53.6107 46.2002 53.1314V42.7314C46.2002 42.2521 45.8128 41.8647 45.3335 41.8647ZM44.4668 52.2647H35.8002V43.5981H44.4668V52.2647Z" fill="#FFAD27"/>
<path d="M41.0002 42.7314V45.3314H39.2668V42.7314H37.5334V46.198C37.5334 46.6773 37.9208 47.0646 38.4001 47.0646H41.8667C42.346 47.0646 42.7333 46.6773 42.7333 46.198V42.7314H41.0002Z" fill="#FFAD27"/>
<path d="M34.9336 41.8647H24.5336C24.0553 41.8647 23.667 42.2521 23.667 42.7314V53.1314C23.667 53.6107 24.0553 53.998 24.5336 53.998H34.9336C35.4129 53.998 35.8002 53.6107 35.8002 53.1314V42.7314C35.8002 42.2521 35.4129 41.8647 34.9336 41.8647ZM34.0669 52.2647H25.4003V43.5981H34.0669V52.2647Z" fill="#FFAD27"/>
<path d="M30.6 42.7314V45.3314H28.8667V42.7314H27.1333V46.198C27.1333 46.6773 27.5216 47.0646 27.9999 47.0646H31.4666C31.9458 47.0646 32.3332 46.6773 32.3332 46.198V42.7314H30.6Z" fill="#FFAD27"/>
<path d="M45.3335 31.4647H34.9335C34.4543 31.4647 34.0669 31.8521 34.0669 32.3314V42.7313C34.0669 43.2106 34.4543 43.598 34.9335 43.598H45.3335C45.8128 43.598 46.2002 43.2106 46.2002 42.7313V32.3314C46.2002 31.8521 45.8128 31.4647 45.3335 31.4647ZM44.4668 41.8647H35.8002V33.1981H44.4668V41.8647Z" fill="#FFAD27"/>
<path d="M41.0002 32.3313V34.9313H39.2668V32.3313H37.5334V35.798C37.5334 36.2772 37.9208 36.6646 38.4001 36.6646H41.8667C42.346 36.6646 42.7333 36.2772 42.7333 35.798V32.3313H41.0002Z" fill="#FFAD27"/>
<path d="M48.8 27.9981H7.19995V29.7314H48.8V27.9981Z" fill="#FFAD27"/>
<path d="M48.8 24.5314H7.19995V26.2647H48.8V24.5314Z" fill="#FFAD27"/>
<path d="M32.3333 14.1313H23.6667C23.1883 14.1313 22.8 14.5196 22.8 14.998V18.4646C22.8 18.943 23.1883 19.3312 23.6667 19.3312H32.3333C32.8126 19.3312 33.1999 18.943 33.1999 18.4646V14.998C33.1999 14.5196 32.8126 14.1313 32.3333 14.1313ZM31.4666 17.5981H24.5332V15.8647H31.4666V17.5981Z" fill="#FFAD27"/>
</svg>
