<?xml version="1.0" encoding="UTF-8"?>
<!DOCTYPE svg PUBLIC "-//W3C//DTD SVG 1.1//EN" "http://www.w3.org/Graphics/SVG/1.1/DTD/svg11.dtd">
<!-- Creator: CorelDRAW 2019 (64-Bit) -->
<svg xmlns="http://www.w3.org/2000/svg" xml:space="preserve" width="95mm" height="95mm" version="1.1" style="shape-rendering:geometricPrecision; text-rendering:geometricPrecision; image-rendering:optimizeQuality; fill-rule:evenodd; clip-rule:evenodd"
viewBox="0 0 9500 9500"
 xmlns:xlink="http://www.w3.org/1999/xlink">
 <defs>
  <style type="text/css">
   <![CDATA[
    .fil1 {fill:#FEFEFE}
    .fil0 {fill:#FEFEFE;fill-rule:nonzero}
   ]]>
  </style>
 </defs>
 <g id="Слой_x0020_1">
  <metadata id="CorelCorpID_0Corel-Layer"/>
  <g id="_1658016686960">
   <path class="fil0" d="M4790.84 1275.99c972.4,0 1852.78,394.2 2490.06,1031.48 637.28,637.29 1031.48,1517.66 1031.48,2490.07 0,972.35 -394.2,1852.82 -1031.48,2490.11 -637.28,637.24 -1517.66,1031.48 -2490.06,1031.48 -972.35,0 -1852.83,-394.2 -2490.11,-1031.48 -637.29,-637.29 -1031.48,-1517.76 -1031.48,-2490.11 0,-972.41 394.24,-1852.78 1031.48,-2490.07 637.28,-637.28 1517.76,-1031.48 2490.11,-1031.48zm2193.88 1327.67c-561.38,-561.39 -1337.11,-908.69 -2193.88,-908.69 -856.82,0 -1632.55,347.3 -2193.93,908.69 -561.33,561.38 -908.68,1337.11 -908.68,2193.88 0,856.81 347.29,1632.54 908.68,2193.92 561.38,561.39 1337.11,908.68 2193.93,908.68 856.77,0 1632.5,-347.34 2193.88,-908.68 561.39,-561.38 908.68,-1337.11 908.68,-2193.92 0,-856.77 -347.29,-1632.5 -908.68,-2193.88z"/>
   <path class="fil1" d="M2506.36 2693.16l1836.06 1068.49 526.89 -3735.89 535.16 3731.04 1710.03 -1008.03 -1112.72 1616.77 3469.19 562.92 -3524.8 494.19 1024.35 1606.97 -1570.99 -1021.04 -530.17 3482.2 -525.27 -3483.84 -1628.24 1101.25 967.11 -1675.74 -3670.47 -490.93 3685.17 -575.98 -1191.3 -1672.38zm2019.38 2084.78l-962.22 -1171.65 1171.7 1027.62 144.04 -2853.87 143.93 2906.26 1178.23 -1099.66 -1021.13 1256.77 2853.92 104.74 -2893.16 91.63 1053.85 1269.87 -1184.77 -1165.17 -144.03 2860.46 -98.17 -2867.04 -1210.94 1165.17 1073.49 -1328.75 -2821.17 -39.28 2716.43 -157.1z"/>
  </g>
 </g>
</svg>
