<svg width="133" height="44" viewBox="0 0 133 44" fill="none" xmlns="http://www.w3.org/2000/svg">
<path d="M3.41797 1.09375H6.48047L12.2363 16.4473L17.9785 1.09375H21.041L13.4395 21H11.0059L3.41797 1.09375ZM2.02344 1.09375H4.93555L5.44141 14.3828V21H2.02344V1.09375ZM19.5234 1.09375H22.4492V21H19.0176V14.3828L19.5234 1.09375ZM40.9527 18.2793V21H30.3844V18.2793H40.9527ZM31.3551 1.09375V21H27.9234V1.09375H31.3551ZM39.5719 9.40625V12.0859H30.3844V9.40625H39.5719ZM40.8844 1.09375V3.82812H30.3844V1.09375H40.8844ZM53.6184 1.09375V21H50.2141V1.09375H53.6184ZM59.8664 1.09375V3.82812H44.0207V1.09375H59.8664ZM67.282 15.4082L76.1141 1.09375H79.5457V21H76.1141V6.67188L67.282 21H63.8641V1.09375H67.282V15.4082ZM91.8832 11.457H89.1215V9.50195H91.5004C92.348 9.50195 93.0362 9.37891 93.5648 9.13281C94.0935 8.8776 94.4763 8.52669 94.7133 8.08008C94.9594 7.62435 95.0824 7.0957 95.0824 6.49414C95.0824 5.95638 94.9457 5.46419 94.6723 5.01758C94.4079 4.57096 93.9978 4.21549 93.4418 3.95117C92.8858 3.67773 92.1703 3.54102 91.2953 3.54102C90.6391 3.54102 90.0421 3.65951 89.5043 3.89648C88.9665 4.13346 88.5381 4.46615 88.2191 4.89453C87.9092 5.32292 87.7543 5.82878 87.7543 6.41211H84.3227C84.3227 5.54622 84.5049 4.77148 84.8695 4.08789C85.2432 3.39518 85.7491 2.80729 86.3871 2.32422C87.0342 1.84115 87.7771 1.47201 88.6156 1.2168C89.4633 0.952474 90.3565 0.820312 91.2953 0.820312C92.3891 0.820312 93.378 0.943359 94.2621 1.18945C95.1462 1.42643 95.9073 1.7819 96.5453 2.25586C97.1833 2.72982 97.671 3.32227 98.0082 4.0332C98.3454 4.73503 98.5141 5.55078 98.5141 6.48047C98.5141 7.16406 98.3546 7.80664 98.0355 8.4082C97.7256 9.00977 97.279 9.53841 96.6957 9.99414C96.1124 10.4499 95.4105 10.8099 94.5902 11.0742C93.779 11.3294 92.8767 11.457 91.8832 11.457ZM89.1215 10.2676H91.8832C92.9861 10.2676 93.9659 10.3815 94.8227 10.6094C95.6794 10.8372 96.404 11.1699 96.9965 11.6074C97.5889 12.0449 98.0401 12.5872 98.35 13.2344C98.6599 13.8724 98.8148 14.6061 98.8148 15.4355C98.8148 16.3652 98.628 17.1947 98.2543 17.9238C97.8897 18.6439 97.3702 19.2546 96.6957 19.7559C96.0212 20.2572 95.2237 20.6354 94.3031 20.8906C93.3917 21.1458 92.3891 21.2734 91.2953 21.2734C90.4112 21.2734 89.5362 21.1641 88.6703 20.9453C87.8135 20.7174 87.0342 20.3711 86.3324 19.9062C85.6397 19.4323 85.0837 18.8307 84.6645 18.1016C84.2452 17.3724 84.0355 16.4974 84.0355 15.4766H87.4809C87.4809 16.0417 87.6404 16.5612 87.9594 17.0352C88.2875 17.5 88.7341 17.8737 89.2992 18.1562C89.8734 18.4297 90.5388 18.5664 91.2953 18.5664C92.1612 18.5664 92.8949 18.4297 93.4965 18.1562C94.1072 17.8828 94.572 17.5091 94.891 17.0352C95.2191 16.5612 95.3832 16.028 95.3832 15.4355C95.3832 14.8704 95.2966 14.3828 95.1234 13.9727C94.9594 13.5534 94.7133 13.2161 94.3852 12.9609C94.057 12.6966 93.6514 12.5007 93.1684 12.373C92.6853 12.2454 92.1293 12.1816 91.5004 12.1816H89.1215V10.2676ZM105.902 8.73633H110.92C112.433 8.73633 113.723 8.99154 114.789 9.50195C115.865 10.0033 116.685 10.7096 117.25 11.6211C117.824 12.5326 118.111 13.5944 118.111 14.8066C118.111 15.7181 117.947 16.5521 117.619 17.3086C117.3 18.0651 116.831 18.7214 116.211 19.2773C115.591 19.8242 114.835 20.248 113.941 20.5488C113.057 20.8496 112.05 21 110.92 21H103.537V1.09375H106.969V18.2793H110.92C111.786 18.2793 112.497 18.1198 113.053 17.8008C113.609 17.4727 114.019 17.0443 114.283 16.5156C114.557 15.987 114.693 15.4082 114.693 14.7793C114.693 14.1686 114.557 13.6126 114.283 13.1113C114.019 12.61 113.609 12.209 113.053 11.9082C112.497 11.6074 111.786 11.457 110.92 11.457H105.902V8.73633ZM123.594 1.09375V21H120.162V1.09375H123.594ZM7.45508 33.9316H3.46973L3.44824 31.9658H6.92871C7.51595 31.9658 8.01367 31.8799 8.42188 31.708C8.83724 31.529 9.15234 31.2747 9.36719 30.9453C9.58203 30.6087 9.68945 30.2041 9.68945 29.7314C9.68945 29.2087 9.58919 28.7826 9.38867 28.4531C9.18815 28.1237 8.88021 27.8838 8.46484 27.7334C8.05664 27.583 7.53385 27.5078 6.89648 27.5078H4.28613V41H1.58984V25.3594H6.89648C7.75586 25.3594 8.52214 25.4417 9.19531 25.6064C9.87565 25.7712 10.4521 26.029 10.9248 26.3799C11.4046 26.7236 11.7663 27.1605 12.0098 27.6904C12.2604 28.2204 12.3857 28.8506 12.3857 29.5811C12.3857 30.2256 12.2318 30.8164 11.9238 31.3535C11.6159 31.8835 11.1611 32.3167 10.5596 32.6533C9.95801 32.9899 9.20964 33.1904 8.31445 33.2549L7.45508 33.9316ZM7.33691 41H2.62109L3.83496 38.8623H7.33691C7.94564 38.8623 8.4541 38.762 8.8623 38.5615C9.27051 38.3538 9.57487 38.071 9.77539 37.7129C9.98307 37.3477 10.0869 36.9215 10.0869 36.4346C10.0869 35.9261 9.9974 35.4857 9.81836 35.1133C9.63932 34.7337 9.35645 34.4437 8.96973 34.2432C8.58301 34.0355 8.07812 33.9316 7.45508 33.9316H4.42578L4.44727 31.9658H8.38965L9.00195 32.707C9.86133 32.7357 10.5667 32.9255 11.1182 33.2764C11.6768 33.6273 12.0921 34.082 12.3643 34.6406C12.6364 35.1992 12.7725 35.8008 12.7725 36.4453C12.7725 37.4408 12.554 38.2751 12.1172 38.9482C11.6875 39.6214 11.068 40.1335 10.2588 40.4844C9.44954 40.8281 8.47559 41 7.33691 41ZM36.4237 25.3594V41H33.7382V27.5078H26.788V41H24.1025V25.3594H36.4237ZM51.4452 38.8623V41H43.1415V38.8623H51.4452ZM43.9042 25.3594V41H41.2079V25.3594H43.9042ZM50.3602 31.8906V33.9961H43.1415V31.8906H50.3602ZM51.3915 25.3594V27.5078H43.1415V25.3594H51.3915ZM61.1278 35.167H57.0565V33.0293H61.1278C61.8368 33.0293 62.4097 32.9147 62.8465 32.6855C63.2834 32.4564 63.6021 32.1413 63.8026 31.7402C64.0103 31.332 64.1141 30.8665 64.1141 30.3438C64.1141 29.8496 64.0103 29.3877 63.8026 28.958C63.6021 28.5212 63.2834 28.1702 62.8465 27.9053C62.4097 27.6403 61.8368 27.5078 61.1278 27.5078H57.8836V41H55.1873V25.3594H61.1278C62.3381 25.3594 63.3657 25.5742 64.2108 26.0039C65.063 26.4264 65.7111 27.0137 66.1551 27.7656C66.5991 28.5104 66.8211 29.3626 66.8211 30.3223C66.8211 31.332 66.5991 32.1986 66.1551 32.9219C65.7111 33.6452 65.063 34.2002 64.2108 34.5869C63.3657 34.9736 62.3381 35.167 61.1278 35.167ZM76.6434 33.9316H72.658L72.6365 31.9658H76.117C76.7042 31.9658 77.202 31.8799 77.6102 31.708C78.0255 31.529 78.3406 31.2747 78.5555 30.9453C78.7703 30.6087 78.8777 30.2041 78.8777 29.7314C78.8777 29.2087 78.7775 28.7826 78.577 28.4531C78.3764 28.1237 78.0685 27.8838 77.6531 27.7334C77.2449 27.583 76.7221 27.5078 76.0848 27.5078H73.4744V41H70.7781V25.3594H76.0848C76.9441 25.3594 77.7104 25.4417 78.3836 25.6064C79.0639 25.7712 79.6404 26.029 80.1131 26.3799C80.5929 26.7236 80.9546 27.1605 81.198 27.6904C81.4487 28.2204 81.574 28.8506 81.574 29.5811C81.574 30.2256 81.42 30.8164 81.1121 31.3535C80.8042 31.8835 80.3494 32.3167 79.7478 32.6533C79.1463 32.9899 78.3979 33.1904 77.5027 33.2549L76.6434 33.9316ZM76.5252 41H71.8094L73.0232 38.8623H76.5252C77.1339 38.8623 77.6424 38.762 78.0506 38.5615C78.4588 38.3538 78.7631 38.071 78.9637 37.7129C79.1714 37.3477 79.2752 36.9215 79.2752 36.4346C79.2752 35.9261 79.1857 35.4857 79.0066 35.1133C78.8276 34.7337 78.5447 34.4437 78.158 34.2432C77.7713 34.0355 77.2664 33.9316 76.6434 33.9316H73.6141L73.6355 31.9658H77.5779L78.1902 32.707C79.0496 32.7357 79.755 32.9255 80.3064 33.2764C80.865 33.6273 81.2804 34.082 81.5525 34.6406C81.8247 35.1992 81.9607 35.8008 81.9607 36.4453C81.9607 37.4408 81.7423 38.2751 81.3055 38.9482C80.8758 39.6214 80.2563 40.1335 79.4471 40.4844C78.6378 40.8281 77.6639 41 76.5252 41ZM98.6902 32.75V33.6094C98.6902 34.791 98.5362 35.8509 98.2283 36.7891C97.9203 37.7272 97.4799 38.5257 96.907 39.1846C96.3412 39.8434 95.6609 40.3483 94.866 40.6992C94.0711 41.043 93.1902 41.2148 92.2234 41.2148C91.2638 41.2148 90.3865 41.043 89.5916 40.6992C88.8038 40.3483 88.1199 39.8434 87.5398 39.1846C86.9597 38.5257 86.5086 37.7272 86.1863 36.7891C85.8712 35.8509 85.7136 34.791 85.7136 33.6094V32.75C85.7136 31.5684 85.8712 30.512 86.1863 29.5811C86.5014 28.6429 86.9454 27.8444 87.5183 27.1855C88.0984 26.5195 88.7823 26.0146 89.5701 25.6709C90.365 25.32 91.2423 25.1445 92.2019 25.1445C93.1687 25.1445 94.0496 25.32 94.8445 25.6709C95.6394 26.0146 96.3233 26.5195 96.8962 27.1855C97.4692 27.8444 97.9096 28.6429 98.2175 29.5811C98.5326 30.512 98.6902 31.5684 98.6902 32.75ZM95.9939 33.6094V32.7285C95.9939 31.8548 95.908 31.085 95.7361 30.4189C95.5714 29.7458 95.3243 29.1836 94.9949 28.7324C94.6726 28.2741 94.2752 27.9303 93.8025 27.7012C93.3298 27.4648 92.7963 27.3467 92.2019 27.3467C91.6075 27.3467 91.0776 27.4648 90.6121 27.7012C90.1466 27.9303 89.7491 28.2741 89.4197 28.7324C89.0974 29.1836 88.8503 29.7458 88.6785 30.4189C88.5066 31.085 88.4207 31.8548 88.4207 32.7285V33.6094C88.4207 34.4831 88.5066 35.2565 88.6785 35.9297C88.8503 36.6029 89.101 37.1722 89.4304 37.6377C89.767 38.096 90.1681 38.4434 90.6336 38.6797C91.099 38.9089 91.629 39.0234 92.2234 39.0234C92.825 39.0234 93.3585 38.9089 93.824 38.6797C94.2895 38.4434 94.6834 38.096 95.0056 37.6377C95.3279 37.1722 95.5714 36.6029 95.7361 35.9297C95.908 35.2565 95.9939 34.4831 95.9939 33.6094ZM104.022 25.3594H106.428L110.951 37.4229L115.463 25.3594H117.869L111.896 41H109.984L104.022 25.3594ZM102.926 25.3594H105.215L105.612 35.8008V41H102.926V25.3594ZM116.676 25.3594H118.975V41H116.279V35.8008L116.676 25.3594Z" fill="white"/>
</svg>
