<svg width="40" height="55" viewBox="0 0 40 55" fill="none" xmlns="http://www.w3.org/2000/svg">
<g clip-path="url(#clip0)">
<path d="M40.25 15.0643V51.4569C40.25 53.414 38.6559 55 36.6922 55H3.80782C1.84257 55 0.25 53.414 0.25 51.4569V3.5431C0.249892 1.58598 1.84246 0 3.80782 0H25.1231L40.25 15.0643Z" fill="#FFAC18"/>
<path d="M26.1332 30.3328C27.2135 30.3328 28.0923 29.4539 28.0923 28.3737C28.0923 27.2934 27.2135 26.4146 26.1332 26.4146C25.053 26.4146 24.1742 27.2934 24.1742 28.3737C24.1742 29.4539 25.053 30.3328 26.1332 30.3328ZM26.1332 27.2694C26.7422 27.2694 27.2375 27.7648 27.2375 28.3737C27.2375 28.9826 26.7422 29.478 26.1332 29.478C25.5243 29.478 25.0289 28.9826 25.0289 28.3737C25.0289 27.7648 25.5243 27.2694 26.1332 27.2694ZM14.9462 38.6684C13.8659 38.6684 12.9871 39.5472 12.9871 40.6275C12.9871 41.7077 13.866 42.5866 14.9462 42.5866C16.0265 42.5866 16.9053 41.7077 16.9053 40.6275C16.9053 39.5472 16.0264 38.6684 14.9462 38.6684ZM14.9462 41.7318C14.3373 41.7318 13.8419 41.2364 13.8419 40.6275C13.8419 40.0185 14.3373 39.5232 14.9462 39.5232C15.5551 39.5232 16.0505 40.0185 16.0505 40.6275C16.0505 41.2364 15.5551 41.7318 14.9462 41.7318ZM29.8659 36.2661C29.3384 34.9604 28.0493 34.0732 26.6269 34.0732H21.738C21.5605 33.5603 21.0725 33.1909 20.5 33.1909C19.9275 33.1909 19.4396 33.5603 19.262 34.0732H14.3731C13.3509 34.0732 12.4198 33.4659 11.9887 32.5566C12.3665 32.3266 12.6193 31.9108 12.6193 31.4371C12.6193 30.9634 12.3665 30.5476 11.9887 30.3176C12.4198 29.4084 13.351 28.801 14.3731 28.801H22.6685C22.8798 30.5251 24.353 31.8645 26.1332 31.8645C28.0581 31.8645 29.624 30.2985 29.624 28.3736C29.624 26.4488 28.058 24.8828 26.1332 24.8828C24.353 24.8828 22.8798 26.2222 22.6685 27.9462H14.3731C12.9507 27.9462 11.6616 28.8335 11.1341 30.1392C10.4947 30.2253 10 30.7745 10 31.4372C10 32.0998 10.4947 32.649 11.1341 32.7351C11.6616 34.0407 12.9507 34.928 14.3731 34.928H19.262C19.4396 35.4409 19.9275 35.8102 20.5 35.8102C21.0725 35.8102 21.5605 35.4409 21.738 34.928H26.6269C27.6491 34.928 28.5802 35.5353 29.0113 36.4446C28.6334 36.6746 28.3807 37.0904 28.3807 37.564C28.3807 38.0377 28.6334 38.4535 29.0113 38.6836C28.5802 39.5928 27.649 40.2001 26.6269 40.2001H18.411C18.1997 38.476 16.7264 37.1367 14.9462 37.1367C13.0214 37.1367 11.4554 38.7027 11.4554 40.6275C11.4554 42.5524 13.0214 44.1184 14.9462 44.1184C16.7265 44.1184 18.1997 42.779 18.411 41.0549H26.6269C28.0493 41.0549 29.3384 40.1677 29.8659 38.862C30.5053 38.7759 31 38.2266 31 37.564C31 36.9014 30.5053 36.3522 29.8659 36.2661ZM26.1332 25.7376C27.5867 25.7376 28.7693 26.9201 28.7693 28.3737C28.7693 29.8272 27.5867 31.0098 26.1332 31.0098C24.6797 31.0098 23.4972 29.8272 23.4972 28.3737C23.4972 26.9201 24.6797 25.7376 26.1332 25.7376ZM11.3812 31.8864C11.3777 31.8869 11.3742 31.8874 11.3706 31.8879C11.3507 31.8906 11.3303 31.892 11.3096 31.892C11.0588 31.892 10.8547 31.688 10.8547 31.4372C10.8547 31.1863 11.0588 30.9823 11.3096 30.9823C11.3302 30.9823 11.3505 30.9837 11.3704 30.9863C11.3741 30.9869 11.3777 30.9874 11.3813 30.9879C11.5982 31.0225 11.7644 31.2107 11.7644 31.4372C11.7645 31.6636 11.5981 31.852 11.3812 31.8864ZM20.5 34.9554C20.2492 34.9554 20.0452 34.7514 20.0452 34.5006C20.0452 34.2498 20.2492 34.0458 20.5 34.0458C20.7509 34.0458 20.9549 34.2498 20.9549 34.5006C20.9549 34.7514 20.7508 34.9554 20.5 34.9554ZM14.9462 43.2635C13.4927 43.2635 12.3102 42.081 12.3102 40.6275C12.3102 39.1739 13.4927 37.9914 14.9462 37.9914C16.3997 37.9914 17.5823 39.1739 17.5823 40.6275C17.5823 42.081 16.3997 43.2635 14.9462 43.2635ZM29.6903 38.0189C29.6697 38.0189 29.6494 38.0175 29.6296 38.0148C29.6259 38.0142 29.6222 38.0137 29.6185 38.0132C29.4017 37.9787 29.2355 37.7904 29.2355 37.564C29.2355 37.3375 29.4018 37.1492 29.6187 37.1148C29.6223 37.1143 29.6258 37.1138 29.6294 37.1132C29.6493 37.1105 29.6697 37.1092 29.6903 37.1092C29.9412 37.1092 30.1453 37.3132 30.1453 37.564C30.1452 37.8148 29.9411 38.0189 29.6903 38.0189Z" fill="white"/>
<path d="M40.25 15H28.778C26.8291 15 25.25 13.4208 25.25 11.472V0L40.25 15Z" fill="#E0E0E0"/>
</g>
<defs>
<clipPath id="clip0">
<rect width="40" height="55" fill="white"/>
</clipPath>
</defs>
</svg>
