<svg width="169" height="24" viewBox="0 0 169 24" fill="none" xmlns="http://www.w3.org/2000/svg">
<path d="M21.4004 2.8C21.3004 3.1 21.1004 3.4 20.9004 3.7L5.50039 22.4C5.00039 23 4.50039 23.3 3.80039 23.3C3.20039 23.3 2.80039 23 2.80039 22.4L1.40039 3.7C1.40039 3.4 1.50039 3.1 1.60039 2.8C1.80039 2.2 2.30039 1.6 2.90039 1.2C3.50039 0.7 4.10039 0.5 4.80039 0.5C5.90039 0.5 6.40039 0.9 6.50039 1.8L7.00039 15L17.3004 1.9C18.0004 1 18.9004 0.5 20.0004 0.5C20.7004 0.5 21.1004 0.7 21.4004 1.2C21.7004 1.7 21.7004 2.2 21.4004 2.8Z" fill="#FFAC18"/>
<path d="M119.2 3.19844C119.1 3.49844 118.9 3.79844 118.7 3.99844L103.2 22.6984C102.7 23.2984 102.2 23.5984 101.5 23.5984C100.9 23.5984 100.5 23.2984 100.5 22.6984L99.2002 4.09844C99.2002 3.79844 99.3002 3.49844 99.4002 3.19844C99.6002 2.59844 100.1 1.99844 100.7 1.59844C101.3 1.09844 101.9 0.898438 102.6 0.898438C103.7 0.898438 104.2 1.39844 104.3 2.29844L104.8 15.4984L115.2 2.19844C115.9 1.29844 116.8 0.898438 117.9 0.898438C118.6 0.898438 119 1.09844 119.3 1.59844C119.4 1.99844 119.5 2.49844 119.2 3.19844Z" fill="#FFAC18"/>
<path d="M45.2005 3.69844C43.9005 1.49844 41.5005 0.398438 38.1005 0.398438C34.7005 0.398438 31.3005 1.49844 28.0005 3.69844C24.6005 5.89844 22.2005 8.59844 20.7005 11.7984C19.2005 14.9984 19.1005 17.6984 20.4005 19.8984C21.7005 22.0984 24.1005 23.1984 27.5005 23.1984C30.9005 23.1984 34.3005 22.0984 37.6005 19.8984C41.0005 17.6984 43.4005 14.9984 44.9005 11.7984C46.5005 8.59844 46.5005 5.89844 45.2005 3.69844ZM39.9005 11.7984C39.0005 13.7984 37.6005 15.3984 35.6005 16.6984C33.7005 17.9984 31.7005 18.6984 29.7005 18.6984C27.7005 18.6984 26.3005 18.0984 25.6005 16.6984C24.9005 15.3984 24.9005 13.6984 25.9005 11.7984C26.8005 9.79844 28.3005 8.19844 30.2005 6.89844C32.2005 5.59844 34.2005 4.89844 36.1005 4.89844C38.1005 4.89844 39.5005 5.59844 40.3005 6.79844C40.9005 8.19844 40.9005 9.79844 39.9005 11.7984Z" fill="#FFAC18"/>
<path d="M69.7997 1.79844C69.6997 1.99844 69.5997 2.19844 69.3997 2.29844L52.6997 18.0984H60.9997C61.6997 18.0984 62.0997 18.2984 62.2997 18.7984C62.5997 19.2984 62.4997 19.7984 62.1997 20.3984C61.8997 20.9984 61.3997 21.5984 60.7997 21.9984C60.0997 22.3984 59.4997 22.6984 58.7997 22.6984H44.0997C43.4997 22.6984 43.2997 22.3984 43.5997 21.7984C43.6997 21.5984 43.8997 21.3984 44.0997 21.1984L60.2997 5.49844H54.3997C53.6997 5.49844 53.2997 5.29844 53.0997 4.79844C52.7997 4.39844 52.8997 3.79844 53.0997 3.19844C53.3997 2.59844 53.8997 1.99844 54.4997 1.59844C55.1997 1.19844 55.7997 0.998438 56.4997 0.898438H69.1997C69.4997 0.898438 69.5997 0.998438 69.6997 1.19844C69.8997 1.39844 69.8997 1.59844 69.7997 1.79844Z" fill="#FFAC18"/>
<path d="M93.5003 3.60078C92.2003 1.40078 89.8003 0.300781 86.4003 0.300781C83.0003 0.300781 79.6003 1.40078 76.3003 3.60078C72.9003 5.80078 70.5003 8.50078 69.0003 11.7008C67.5003 14.9008 67.4003 17.6008 68.7003 19.8008C70.0003 22.0008 72.4003 23.1008 75.8003 23.1008C79.2003 23.1008 82.6003 22.0008 85.9003 19.8008C89.3003 17.6008 91.7003 14.9008 93.2003 11.7008C94.7003 8.50078 94.8003 5.80078 93.5003 3.60078ZM88.2003 11.8008C87.3003 13.8008 85.8003 15.4008 83.9003 16.7008C81.9003 18.0008 79.9003 18.6008 77.9003 18.6008C75.9003 18.6008 74.5003 18.0008 73.8003 16.7008C73.1003 15.4008 73.1003 13.7008 74.1003 11.8008C75.0003 9.80078 76.5003 8.20078 78.4003 6.80078C80.4003 5.50078 82.3003 4.90078 84.3003 4.90078C86.3003 4.90078 87.7003 5.60078 88.5003 6.80078C89.2003 8.10078 89.1003 9.80078 88.2003 11.8008Z" fill="#FFAC18"/>
<path d="M144 3.60078C142.7 1.40078 140.3 0.300781 136.9 0.300781C133.5 0.300781 130.1 1.40078 126.8 3.60078C123.5 5.80078 121 8.50078 119.5 11.7008C118 14.9008 117.9 17.6008 119.2 19.8008C120.5 22.0008 122.9 23.1008 126.3 23.1008C129.7 23.1008 133.1 22.0008 136.4 19.8008C139.8 17.6008 142.2 14.9008 143.7 11.7008C145.3 8.50078 145.4 5.80078 144 3.60078ZM138.7 11.7008C137.8 13.7008 136.4 15.3008 134.4 16.6008C132.4 17.9008 130.5 18.6008 128.4 18.6008C126.4 18.6008 125 17.9008 124.3 16.6008C123.6 15.3008 123.7 13.7008 124.6 11.7008C125.5 9.70078 127 8.10078 128.9 6.80078C130.9 5.50078 132.8 4.90078 134.8 4.80078C136.8 4.80078 138.2 5.40078 138.9 6.80078C139.8 8.10078 139.7 9.70078 138.7 11.7008Z" fill="#FFAC18"/>
<path d="M168.6 1.80078C168.5 2.00078 168.4 2.10078 168.2 2.30078L151.5 18.0008H159.8C160.4 18.0008 160.9 18.2008 161.1 18.7008C161.4 19.2008 161.3 19.7008 161 20.3008C160.7 21.0008 160.2 21.5008 159.6 21.9008C158.9 22.3008 158.3 22.6008 157.6 22.6008H142.8C142.2 22.6008 142 22.3008 142.3 21.7008C142.4 21.5008 142.6 21.3008 142.8 21.1008L159.2 5.40078H153.3C152.7 5.40078 152.2 5.20078 152 4.70078C151.7 4.30078 151.8 3.70078 152.1 3.10078C152.4 2.50078 152.9 2.00078 153.5 1.50078C154.2 1.00078 154.8 0.800781 155.5 0.800781H168.2C168.5 0.800781 168.6 0.900781 168.7 1.10078C168.7 1.30078 168.7 1.50078 168.6 1.80078Z" fill="#FFAC18"/>
</svg>
