<svg width="380" height="190" viewBox="0 0 380 190" fill="none" xmlns="http://www.w3.org/2000/svg">
<path opacity="0.9" fill-rule="evenodd" clip-rule="evenodd" d="M0.005613 -51.8993L140.168 -190L330.168 -138.095L380 51.9049L239.838 190L49.8322 138.101L48.5356 132.993L0 -51.8993H0.005613ZM311.69 -7.93701C327.025 46.3423 326.345 34.9139 274.167 86.2519C216.123 143.36 236.852 137.972 158.236 116.434C79.6204 94.8961 94.6632 110.091 74.0972 31.4449C53.5256 -47.2011 47.8452 -26.612 105.884 -83.7147C158.062 -135.058 146.6 -135.883 200.856 -119.886L75.5397 3.34546L91.273 66.4655L263.626 -103.046C285.466 -97.0179 289.85 -92.5891 295.614 -70.7371L123.84 98.2023L186.088 115.564L311.684 -7.94263L311.69 -7.93701Z" fill="white"/>
</svg>
