<svg width="380" height="190" viewBox="0 0 380 190" fill="none" xmlns="http://www.w3.org/2000/svg">
<path opacity="0.9" fill-rule="evenodd" clip-rule="evenodd" d="M0.005613 138.101L140.168 0L330.168 51.9049L380 241.905L239.838 380L49.8322 328.101L48.5356 322.993L0 138.101H0.005613ZM311.69 182.063C327.025 236.342 326.345 224.914 274.167 276.252C216.123 333.36 236.852 327.972 158.236 306.434C79.6204 284.896 94.6632 300.091 74.0972 221.445C53.5256 142.799 47.8452 163.388 105.884 106.285C158.062 54.9417 146.6 54.1165 200.856 70.114L75.5397 193.345L91.273 256.465L263.626 86.9535C285.466 92.9821 289.85 97.4109 295.614 119.263L123.84 288.202L186.088 305.564L311.684 182.057L311.69 182.063Z" fill="white"/>
</svg>
