<svg width="58" height="58" viewBox="0 0 58 58" fill="none" xmlns="http://www.w3.org/2000/svg">
<path d="M31.8287 55.1713L55.1716 31.8284C56.7337 30.2663 56.7337 27.7337 55.1716 26.1716L31.8287 2.82867C30.2666 1.26659 27.7339 1.26659 26.1719 2.82867L2.82893 26.1716C1.26685 27.7337 1.26685 30.2663 2.82893 31.8284L26.1719 55.1713C27.7339 56.7334 30.2666 56.7334 31.8287 55.1713Z" fill="#FFAC18"/>
<path d="M26.4949 36.9652C26.4949 35.4401 27.5225 34.379 28.9805 34.379C30.5047 34.379 31.4661 35.4401 31.4987 36.9652C31.4987 38.4567 30.5038 39.5504 28.9805 39.5504C27.489 39.5504 26.4614 38.4567 26.4949 36.9652ZM27.4228 32.2921L26.8266 16.8477H31.1354L30.5391 32.2921H27.4228Z" fill="white"/>
</svg>
