<svg width="56" height="56" viewBox="0 0 56 56" fill="none" xmlns="http://www.w3.org/2000/svg">
<path d="M38.6016 41.7656C38.0194 41.7656 37.5469 42.2381 37.5469 42.8203C37.5469 43.4025 38.0194 43.875 38.6016 43.875C39.1838 43.875 39.6562 43.4025 39.6562 42.8203C39.6562 42.2381 39.1838 41.7656 38.6016 41.7656Z" fill="#FFAD27"/>
<path d="M42.1984 39.3551L37.1855 37.6845L35.3859 34.0851C37.0071 32.435 38.1328 30.2515 38.5124 27.9742L38.7368 26.6289H40.6562C42.4009 26.6289 43.8203 25.2095 43.8203 23.4648V16.8203C43.8203 8.09699 36.7233 1 28 1C19.2543 1 12.1797 8.07664 12.1797 16.8203V23.4648C12.1797 24.8397 13.0615 26.0121 14.2891 26.4475V27.6836C14.2891 29.4283 15.7085 30.8477 17.4531 30.8477H18.3794C18.8366 31.8409 19.4283 32.7608 20.1485 33.5871C20.2978 33.7588 20.4536 33.9252 20.6132 34.0871L18.8145 37.6845L13.8015 39.3552C7.97275 41.2988 3.74219 47.4348 3.74219 53.9453C3.74219 54.5278 4.21437 55 4.79688 55H51.2031C51.7855 55 52.2578 54.5278 52.2578 53.9453C52.2578 47.4348 48.0274 41.2988 42.1984 39.3551ZM41.7109 23.4648C41.7109 24.0464 41.2378 24.5195 40.6562 24.5195H39.0466C39.3147 22.4429 39.4934 20.233 39.5652 18.0564C39.5673 17.995 39.569 17.9353 39.5709 17.875H41.7109V23.4648ZM15.3438 24.5195C14.7622 24.5195 14.2891 24.0464 14.2891 23.4648V17.875H16.4299C16.4333 17.985 16.437 18.0955 16.4412 18.2068C16.4413 18.2106 16.4415 18.2143 16.4416 18.2181C16.4416 18.2184 16.4416 18.2187 16.4416 18.219C16.5154 20.336 16.6917 22.4885 16.9537 24.5194H15.3438V24.5195ZM17.4531 28.7383C16.8716 28.7383 16.3984 28.2651 16.3984 27.6836V26.6289H17.2631L17.4875 27.9746C17.5303 28.2303 17.583 28.4852 17.6438 28.7383H17.4531ZM16.4002 15.7656H14.3291C14.8633 8.697 20.7624 3.10938 28 3.10938C35.2054 3.10938 41.1304 8.69627 41.6708 15.7656H39.5999C39.5239 9.9409 34.7807 5.21875 28.944 5.21875H27.0562C21.2196 5.21875 16.4761 9.9409 16.4002 15.7656ZM27.0561 7.32812H28.9439C33.6699 7.32812 37.4949 11.1937 37.4922 15.9143C37.4922 16.2462 37.4896 16.5352 37.484 16.7982C37.484 16.8015 37.4839 16.805 37.4839 16.8085L36.1646 16.62C32.5808 16.1083 29.197 14.4164 26.6364 11.8558C26.4385 11.658 26.1703 11.5469 25.8906 11.5469C23.0582 11.5469 20.3468 12.8374 18.5544 15.0176C18.9961 10.7231 22.6267 7.32812 27.0561 7.32812ZM19.8304 28.7383C19.3024 26.9819 18.6983 21.8139 18.5648 18.5022L19.9843 16.6095C21.288 14.8718 23.3162 13.7921 25.4738 13.6682C28.3127 16.3699 31.9853 18.154 35.8664 18.7081L37.4191 18.93C37.3153 21.1327 37.1032 23.3431 36.7994 25.376C36.7993 25.3767 36.7992 25.3774 36.799 25.3782C36.7024 26.0317 36.6263 26.4524 36.4318 27.6272C35.8732 30.9774 33.3734 34.007 30.0734 34.8321C28.7153 35.1711 27.2845 35.171 25.9271 34.8321C23.8666 34.3169 21.9772 32.8912 20.7579 30.8477H22.908C23.3433 32.0752 24.5156 32.957 25.8906 32.957H28C29.7481 32.957 31.1641 31.5412 31.1641 29.793C31.1641 28.0483 29.7447 26.6289 28 26.6289H25.8906C24.485 26.6289 23.3301 27.5368 22.9062 28.7383H19.8304ZM25.8019 36.9665C26.5253 37.1189 27.2629 37.1969 28 37.1969C28.577 37.1969 29.1541 37.1486 29.7247 37.0549L27.8611 39.0258L25.8019 36.9665ZM26.4111 40.5591L23.0659 44.0967C22.1449 42.3339 21.3536 40.4993 20.7045 38.6211L21.9608 36.1086L26.4111 40.5591ZM33.8605 35.7513L35.2953 38.621C34.6452 40.5024 33.8536 42.3376 32.9336 44.0983L29.3532 40.5179L33.8605 35.7513ZM24.8359 29.793C24.8359 29.2107 25.3082 28.7383 25.8906 28.7383H28C28.5816 28.7383 29.0547 29.2114 29.0547 29.793C29.0547 30.3754 28.5823 30.8477 28 30.8477H25.8906C25.3091 30.8477 24.8359 30.3745 24.8359 29.793ZM5.89375 52.8906C6.31172 47.6658 9.78892 42.9168 14.4686 41.3562L18.9082 39.8767C19.7215 42.1259 20.7292 44.3119 21.9101 46.3884C21.9121 46.392 21.914 46.3955 21.916 46.399C21.916 46.3991 21.9161 46.3991 21.9161 46.3992C22.779 47.9168 23.7501 49.3998 24.803 50.8077L26.1005 52.8906H5.89375ZM28 51.9505L26.5696 49.6541C26.5536 49.6284 26.5365 49.6034 26.5184 49.5791C25.6643 48.4398 24.8676 47.2484 24.142 46.0288L27.9033 42.0512L31.8666 46.0145C31.1361 47.2429 30.3367 48.4393 29.4818 49.5789C29.4302 49.6478 29.5035 49.5392 28 51.9505ZM29.8995 52.8906L31.1969 50.8078C32.2544 49.3945 33.2325 47.8996 34.104 46.3642C34.1093 46.3549 34.1142 46.3454 34.1195 46.3362C34.1201 46.335 34.1208 46.334 34.1214 46.3328C35.2874 44.2761 36.2845 42.1091 37.0918 39.8767L41.5313 41.3562C46.2111 42.9168 49.6883 47.6658 50.1063 52.8906H29.8995Z" fill="#FFAD27"/>
<path d="M45.9365 47.6224C45.2316 46.2115 44.1992 44.9581 42.9508 43.9977C42.489 43.6424 41.8269 43.7288 41.4718 44.1905C41.1165 44.6523 41.2029 45.3144 41.6646 45.6696C42.6617 46.4367 43.4862 47.4379 44.0493 48.565C44.3101 49.087 44.944 49.2971 45.4642 49.0372C45.9852 48.7769 46.1967 48.1435 45.9365 47.6224Z" fill="#FFAD27"/>
</svg>
