<svg width="56" height="56" viewBox="0 0 56 56" fill="none" xmlns="http://www.w3.org/2000/svg">
<path d="M29.5155 20.5H24.4639C23.9429 20.5 23.5206 20.8717 23.5206 21.3303V27.6144H22.4432C21.9223 27.6144 21.5 27.9861 21.5 28.4446C21.5 28.9032 21.9223 29.2749 22.4432 29.2749H23.5206V31.1716H22.4432C21.9223 31.1716 21.5 31.5433 21.5 32.0018C21.5 32.4604 21.9223 32.8321 22.4432 32.8321H23.5206V34.6697C23.5206 35.1283 23.9429 35.5 24.4639 35.5C24.9848 35.5 25.4071 35.1283 25.4071 34.6697V32.8321H29.5155C30.0364 32.8321 30.4587 32.4604 30.4587 32.0018C30.4587 31.5433 30.0364 31.1716 29.5155 31.1716H25.4071V29.2749H29.5155C32.264 29.2749 34.5 27.3067 34.5 24.8874C34.4999 22.4084 32.2058 20.5 29.5155 20.5ZM29.5155 27.6144H25.4071V22.1605H29.5155C31.2134 22.1605 32.6135 23.3661 32.6135 24.8875C32.6135 26.3911 31.2237 27.6144 29.5155 27.6144Z" fill="#FFAD27"/>
<circle cx="28" cy="28" r="24.5" stroke="#FFAD27" stroke-width="2"/>
</svg>
