<svg width="56" height="56" viewBox="0 0 56 56" fill="none" xmlns="http://www.w3.org/2000/svg">
<path d="M2.5 2.5V53.5H53.5V2.5H2.5ZM51.8 51.8H4.2V4.2H51.8V51.8Z" fill="#FFAD27"/>
<path d="M43.9005 13.301L13.3005 43.901L12.0986 42.6991L42.6986 12.0991L43.9005 13.301Z" fill="#FFAD27"/>
<path d="M16.9501 22.05C19.7627 22.05 22.0501 19.7627 22.0501 16.95C22.0501 14.1374 19.7627 11.85 16.9501 11.85C14.1374 11.85 11.8501 14.1374 11.8501 16.95C11.8501 19.7627 14.1374 22.05 16.9501 22.05ZM16.9501 13.55C18.8252 13.55 20.3501 15.0749 20.3501 16.95C20.3501 18.8251 18.8252 20.35 16.9501 20.35C15.075 20.35 13.5501 18.8251 13.5501 16.95C13.5501 15.0749 15.075 13.55 16.9501 13.55Z" fill="#FFAD27"/>
<path d="M39.05 33.95C36.2373 33.95 33.95 36.2373 33.95 39.05C33.95 41.8626 36.2373 44.15 39.05 44.15C41.8626 44.15 44.15 41.8626 44.15 39.05C44.15 36.2373 41.8626 33.95 39.05 33.95ZM39.05 42.45C37.1749 42.45 35.65 40.9251 35.65 39.05C35.65 37.1749 37.1749 35.65 39.05 35.65C40.9251 35.65 42.45 37.1749 42.45 39.05C42.45 40.9251 40.9251 42.45 39.05 42.45Z" fill="#FFAD27"/>
</svg>
