<svg width="56" height="56" viewBox="0 0 56 56" fill="none" xmlns="http://www.w3.org/2000/svg">
<path d="M16.2637 27.6884C15.9825 27.6884 15.7076 27.5736 15.5075 27.3743C15.4586 27.3249 15.4135 27.2704 15.3751 27.2114C15.3367 27.1536 15.3032 27.0912 15.2765 27.0271C15.2498 26.9614 15.2297 26.894 15.2159 26.8253C15.2017 26.7566 15.1955 26.6863 15.1955 26.6163C15.1955 26.5468 15.2017 26.4761 15.2159 26.4074C15.2297 26.3387 15.2498 26.2713 15.2765 26.2068C15.3032 26.1415 15.3367 26.0795 15.3751 26.0213C15.4148 25.9627 15.4586 25.9078 15.5075 25.8584C15.7557 25.6097 16.1258 25.4949 16.4734 25.5657C16.5419 25.5799 16.6092 25.6 16.6735 25.6268C16.7374 25.6536 16.7997 25.6871 16.8586 25.7256C16.9162 25.7642 16.9718 25.809 17.0211 25.8584C17.22 26.0577 17.3344 26.3345 17.3344 26.6163C17.3344 26.6863 17.3269 26.7566 17.3131 26.8253C17.2989 26.894 17.2789 26.9614 17.2521 27.0271C17.2254 27.0912 17.192 27.1536 17.1535 27.2114C17.1151 27.2704 17.0704 27.3249 17.0211 27.3743C16.9718 27.4237 16.9162 27.4685 16.8586 27.5083C16.7997 27.5468 16.7374 27.5803 16.6735 27.6071C16.6092 27.6339 16.5419 27.654 16.4734 27.6678C16.4041 27.6821 16.3343 27.6884 16.2637 27.6884Z" fill="#FFAC18"/>
<path d="M9.8316 16.7937C10.2489 16.375 10.9266 16.375 11.3439 16.7937C11.7617 17.2125 11.7617 17.8909 11.3439 18.3096L10.6792 18.9759L11.3439 19.6417C11.7617 20.0604 11.7617 20.7392 11.3439 21.158C11.135 21.3674 10.8614 21.472 10.5878 21.472C10.3141 21.472 10.0405 21.3674 9.8316 21.158L9.16692 20.4917L8.50225 21.158C8.29337 21.3674 8.01973 21.472 7.74567 21.472C7.47204 21.472 7.1984 21.3674 6.98951 21.158C6.57174 20.7392 6.57216 20.0604 6.98951 19.6417L7.65418 18.9759L6.98951 18.3096C6.57216 17.8913 6.57216 17.2125 6.98951 16.7937C7.40728 16.375 8.08449 16.375 8.50225 16.7937L9.16692 17.46L9.8316 16.7937Z" fill="#FFAC18"/>
<path fill-rule="evenodd" clip-rule="evenodd" d="M44.9067 9.63091C45.284 9.80678 45.525 10.1858 45.525 10.6028V13.0513C45.525 13.0513 45.525 14.1331 44.5047 14.1331C43.4844 14.1331 43.386 13.0546 43.386 13.0546V11.2862L31.5285 5.75325V44.7137L43.386 50.2463V47.1414C43.386 47.1414 43.3891 46.1176 44.4571 46.0999C45.525 46.0822 45.525 47.1715 45.525 47.1715V51.8978C45.525 52.1834 45.4256 52.4652 45.2271 52.6709C45.0166 52.8886 44.7367 53 44.4555 53C44.3018 53 44.1476 52.9669 44.0043 52.8999L30.4561 46.5784L16.7102 52.9024C16.427 53.0276 16.1032 53.0276 15.8195 52.9028L15.8183 52.9024L1.62331 46.3715C1.24356 46.1969 1 45.8163 1 45.3975V4.10377C1 3.81818 1.09901 3.53636 1.29662 3.33075C1.62039 2.99408 2.10918 2.91074 2.51567 3.09793L16.2645 9.4232L30.0082 3.10002C30.2543 2.98528 30.535 2.96853 30.7932 3.05354L30.9106 3.10002L44.9067 9.63091ZM3.13898 5.74361L15.195 11.29V21.3259C15.195 21.918 15.6737 22.3979 16.2645 22.3979C16.8548 22.3979 17.3339 21.918 17.3339 21.3259V11.29L29.3895 5.74361V44.7099L17.3339 50.2563V31.6925C17.3339 31.1004 16.8548 30.6205 16.2645 30.6205C15.6737 30.6205 15.195 31.1004 15.195 31.6925V50.2563L3.13898 44.7099V5.74361Z" fill="#FFAC18"/>
<path fill-rule="evenodd" clip-rule="evenodd" d="M39.4763 26.6877C39.4763 23.8648 41.767 21.5685 44.5834 21.5685C47.3998 21.5685 49.6906 23.8648 49.6905 26.6877C49.6905 29.5106 47.3997 31.8068 44.5834 31.8068C41.767 31.8068 39.4763 29.5106 39.4763 26.6877ZM44.5834 23.9454C43.0751 23.9454 41.8476 25.1758 41.8476 26.6877C41.8476 28.1995 43.0751 29.4299 44.5834 29.4299C46.0918 29.4299 47.3192 28.1995 47.3192 26.6877C47.3192 25.1758 46.0917 23.9454 44.5834 23.9454Z" fill="#FFAC18"/>
<path fill-rule="evenodd" clip-rule="evenodd" d="M34.1691 26.6883C34.1691 20.9314 38.8413 16.2483 44.5847 16.2483C50.328 16.2483 55 20.9314 55 26.6883C55 29.0735 54.1794 31.3986 52.6865 33.2493C52.6727 33.2693 52.6584 33.289 52.6434 33.3083L45.5191 42.457C45.2944 42.7455 44.9496 42.9142 44.5844 42.9142C44.2192 42.9142 43.8744 42.7454 43.6497 42.4567L36.4913 33.2598L36.4903 33.2585L36.4852 33.2518C34.9912 31.4014 34.1691 29.0722 34.1691 26.6883ZM44.5846 18.625C40.1493 18.625 36.5405 22.2424 36.5405 26.6882C36.5405 28.5384 37.1819 30.3463 38.3459 31.7779C38.3581 31.7929 38.3702 31.8085 38.3822 31.8248L44.5848 39.7939L50.7108 31.9272C50.7348 31.8902 50.7611 31.8544 50.7892 31.8202C51.975 30.3814 52.6286 28.5584 52.6287 26.6882C52.6287 22.2424 49.0199 18.625 44.5846 18.625Z" fill="#FFAC18"/>
</svg>
