<svg width="56" height="56" viewBox="0 0 56 56" fill="none" xmlns="http://www.w3.org/2000/svg">
<path d="M54.5528 17.968L51.663 15.4706C51.3046 15.1606 50.7625 15.2002 50.4526 15.5589C50.1427 15.9175 50.1821 16.4594 50.5409 16.7693L53.4304 19.2666C54.4605 20.1569 54.5742 21.7191 53.6841 22.7492L40.0419 39.3399C39.732 39.6985 39.7714 40.2404 40.1301 40.5504C40.2924 40.6908 40.4921 40.7594 40.6909 40.7594C40.9317 40.7594 41.1709 40.6587 41.3406 40.4624L54.9827 23.8714C56.4918 22.1254 56.2989 19.4769 54.5528 17.968Z" fill="#FFAC18"/>
<path d="M49.4666 13.5714L36.0991 2.01896C35.2532 1.28791 34.1731 0.930458 33.0582 1.01121C31.9431 1.0923 30.9265 1.60296 30.1955 2.44875L28.9218 3.92252C28.6119 4.2812 28.6513 4.82315 29.01 5.13305C29.3688 5.44317 29.9106 5.40346 30.2205 5.04489L31.4942 3.57113C31.9254 3.07224 32.5251 2.77098 33.1829 2.72309C33.8408 2.67475 34.4777 2.88628 34.9767 3.31753L48.3442 14.87C48.5065 15.0103 48.7063 15.079 48.905 15.079C49.1458 15.079 49.3851 14.9782 49.5548 14.782C49.8646 14.4233 49.8252 13.8813 49.4666 13.5714Z" fill="#FFAC18"/>
<path d="M42.7436 12.6149L19.6178 4.85825C17.4294 4.12429 15.0525 5.30745 14.3186 7.49545L14.0135 8.40494C13.8628 8.85425 14.1049 9.3408 14.5544 9.49154C15.0038 9.64228 15.4901 9.40024 15.641 8.95071L15.946 8.04121C16.379 6.75037 17.7811 6.05241 19.072 6.48546L42.1979 14.242C43.4888 14.6751 44.1866 16.0773 43.7537 17.368L34.0194 48.4222C33.8687 48.8715 34.1108 49.358 34.5602 49.5088C34.6507 49.5391 34.7427 49.5536 34.8332 49.5536C35.1919 49.5536 35.5264 49.3269 35.6468 48.9681L45.3811 17.914C46.1149 15.7261 44.9318 13.3488 42.7436 12.6149Z" fill="#FFAC18"/>
<path d="M28.5775 11.4629H4.18554C1.87765 11.4629 0 13.3404 0 15.6483V49.4843C0 51.7922 1.87765 53.6698 4.18554 53.6698H28.5776C30.8855 53.6698 32.7632 51.7922 32.7632 49.4843V15.6483C32.7631 13.3404 30.8855 11.4629 28.5775 11.4629ZM31.0466 49.4843C31.0466 50.8458 29.9389 51.9534 28.5775 51.9534H4.18554C2.82405 51.9534 1.71648 50.8457 1.71648 49.4843V15.6483C1.71648 14.2868 2.82416 13.1793 4.18554 13.1793H28.5776C29.9391 13.1793 31.0467 14.2869 31.0467 15.6483V49.4843H31.0466Z" fill="#FFAC18"/>
<path d="M29.0244 35.1504H3.7391C3.26512 35.1504 2.88086 35.5346 2.88086 36.0086C2.88086 36.4826 3.26512 36.8669 3.7391 36.8669H29.0245C29.4985 36.8669 29.8828 36.4826 29.8828 36.0086C29.8826 35.5346 29.4984 35.1504 29.0244 35.1504Z" fill="#FFAC18"/>
<path d="M25.0229 40.0566H14.3953C13.9214 40.0566 13.5371 40.4409 13.5371 40.9149C13.5371 41.3889 13.9214 41.7731 14.3953 41.7731H25.0229C25.4968 41.7731 25.8811 41.3889 25.8811 40.9149C25.8811 40.4409 25.4968 40.0566 25.0229 40.0566Z" fill="#FFAC18"/>
<path d="M11.5354 40.0566H7.74007C7.26609 40.0566 6.88184 40.4409 6.88184 40.9149C6.88184 41.3889 7.26609 41.7731 7.74007 41.7731H11.5354C12.0094 41.7731 12.3937 41.3889 12.3937 40.9149C12.3937 40.4409 12.0094 40.0566 11.5354 40.0566Z" fill="#FFAC18"/>
<path d="M25.0238 43.3379H7.74008C7.26609 43.3379 6.88184 43.7221 6.88184 44.1961C6.88184 44.6701 7.26609 45.0544 7.74008 45.0544H25.0238C25.4977 45.0544 25.882 44.6701 25.882 44.1961C25.882 43.722 25.4977 43.3379 25.0238 43.3379Z" fill="#FFAC18"/>
<path d="M25.0238 46.6191H7.74008C7.26609 46.6191 6.88184 47.0034 6.88184 47.4774C6.88184 47.9514 7.26609 48.3356 7.74008 48.3356H25.0238C25.4977 48.3356 25.882 47.9514 25.882 47.4774C25.882 47.0034 25.4977 46.6191 25.0238 46.6191Z" fill="#FFAC18"/>
<path d="M16.9226 31.7627H15.8928C15.06 31.7627 14.3824 31.0851 14.3824 30.2523V29.9039C14.0284 29.7908 13.6843 29.648 13.3539 29.477L13.107 29.7239C12.509 30.3226 11.5512 30.305 10.9707 29.7237L10.2429 28.9959C9.6613 28.415 9.64457 27.4575 10.2431 26.8596L10.4898 26.6129C10.3187 26.2824 10.176 25.9385 10.0628 25.5844H9.7145C8.8817 25.5844 8.2041 24.9068 8.2041 24.074V23.0442C8.2041 22.2114 8.8817 21.5338 9.71453 21.5338H10.0629C10.176 21.1797 10.3188 20.8357 10.4898 20.5053L10.2429 20.2584C9.64477 19.6609 9.66127 18.7033 10.2431 18.1221L10.971 17.3943C11.5529 16.8116 12.5105 16.797 13.1072 17.3945L13.3539 17.6411C13.6844 17.4701 14.0284 17.3273 14.3825 17.2142V16.8659C14.3825 16.033 15.06 15.3555 15.8929 15.3555H16.9226C17.7554 15.3555 18.433 16.033 18.433 16.8659V17.2142C18.7871 17.3273 19.1311 17.4701 19.4615 17.6412L19.7084 17.3943C20.3064 16.7956 21.2642 16.8132 21.8447 17.3945L22.5725 18.1223C23.1541 18.7032 23.1708 19.6607 22.5723 20.2586L22.3256 20.5053C22.4967 20.8357 22.6394 21.1797 22.7526 21.5338H23.1009C23.9337 21.5338 24.6113 22.2114 24.6113 23.0442V24.074C24.6113 24.9068 23.9337 25.5844 23.1009 25.5844H22.7526C22.6394 25.9385 22.4967 26.2824 22.3256 26.6129L22.5725 26.8598C23.1707 27.4573 23.1542 28.4149 22.5723 28.9961L21.8445 29.7239C21.2626 30.3066 20.305 30.3212 19.7082 29.7237L19.4615 29.4771C19.1311 29.6481 18.7871 29.7909 18.433 29.904V30.2524C18.433 31.0851 17.7554 31.7627 16.9226 31.7627ZM13.5146 28.4675C13.9737 28.739 14.4678 28.9441 14.9832 29.0771C15.1955 29.1319 15.3438 29.3233 15.3438 29.5426V30.2523C15.3438 30.555 15.5901 30.8013 15.8929 30.8013H16.9226C17.2253 30.8013 17.4717 30.555 17.4717 30.2523V29.5426C17.4717 29.3233 17.62 29.1319 17.8322 29.0771C18.3477 28.9441 18.8418 28.739 19.3009 28.4675C19.4898 28.3558 19.7303 28.3861 19.8855 28.5413L20.3882 29.0441C20.605 29.2611 20.9531 29.2561 21.1645 29.0443L21.8928 28.3161C22.1037 28.1054 22.1108 27.7573 21.893 27.5398L21.39 27.0368C21.2349 26.8816 21.2045 26.6411 21.3162 26.4522C21.5877 25.9932 21.7928 25.499 21.9258 24.9836C21.9806 24.7713 22.172 24.623 22.3912 24.623H23.1009C23.4037 24.623 23.65 24.3767 23.65 24.074V23.0442C23.65 22.7415 23.4037 22.4952 23.1009 22.4952H22.3912C22.172 22.4952 21.9806 22.3469 21.9258 22.1347C21.7928 21.6192 21.5877 21.1251 21.3162 20.666C21.2045 20.4771 21.2349 20.2366 21.39 20.0814L21.8928 19.5787C22.1101 19.3616 22.1045 19.0136 21.893 18.8024L21.1648 18.0741C20.9537 17.8628 20.6055 17.8566 20.3885 18.0739L19.8855 18.5769C19.7304 18.7321 19.4898 18.7625 19.3009 18.6508C18.8418 18.3792 18.3477 18.1741 17.8323 18.0411C17.62 17.9863 17.4717 17.7949 17.4717 17.5757V16.8659C17.4717 16.5631 17.2254 16.3168 16.9226 16.3168H15.8929C15.5902 16.3168 15.3438 16.5631 15.3438 16.8659V17.5756C15.3438 17.7948 15.1955 17.9863 14.9833 18.041C14.4679 18.1741 13.9737 18.3792 13.5146 18.6507C13.3257 18.7624 13.0852 18.732 12.93 18.5768L12.4273 18.0741C12.2105 17.8571 11.8624 17.8621 11.651 18.0738L10.9227 18.8021C10.7118 19.0128 10.7047 19.3609 10.9225 19.5784L11.4255 20.0814C11.5806 20.2365 11.611 20.4771 11.4993 20.6659C11.2278 21.125 11.0227 21.6192 10.8897 22.1346C10.8349 22.3469 10.6435 22.4951 10.4243 22.4951H9.71453C9.4118 22.4952 9.16546 22.7415 9.16546 23.0442V24.074C9.16546 24.3767 9.4118 24.623 9.71453 24.623H10.4242C10.6435 24.623 10.8349 24.7713 10.8897 24.9835C11.0227 25.499 11.2278 25.9931 11.4993 26.4522C11.611 26.6411 11.5806 26.8816 11.4254 27.0368L10.9227 27.5395C10.7053 27.7566 10.711 28.1046 10.9225 28.3158L11.6507 29.0441C11.8618 29.2554 12.2099 29.2616 12.427 29.0443L12.9299 28.5413C13.0443 28.427 13.2821 28.33 13.5146 28.4675Z" fill="#FFAC18" stroke="#FFAC18" stroke-width="0.5"/>
<circle cx="16.4086" cy="23.558" r="2.40957" stroke="#FFAC18" stroke-width="1.3"/>
</svg>
