<svg width="56" height="56" viewBox="0 0 56 56" fill="none" xmlns="http://www.w3.org/2000/svg">
<g clip-path="url(#clip0)">
<path d="M35.4138 7.23747C29.0259 4.00959 21.331 5.24378 16.2664 10.3085C10.3801 16.1946 9.79099 25.5802 14.8961 32.1401C15.0765 32.3719 15.3463 32.4933 15.6189 32.4933C15.8154 32.4933 16.0133 32.4303 16.1804 32.3002C16.5793 31.9898 16.651 31.4148 16.3407 31.0159C11.8015 25.1833 12.3261 16.8374 17.5608 11.6027C22.0649 7.0983 28.9077 6.00056 34.5886 8.87103C35.0395 9.09925 35.5901 8.91799 35.8181 8.4669C36.046 8.0158 35.8652 7.46534 35.4138 7.23747Z" fill="#FFAC18"/>
<path d="M42.7224 14.5457C42.4944 14.0946 41.9442 13.9136 41.4927 14.1414C41.0416 14.3693 40.8605 14.9196 41.0884 15.3709C43.9568 21.0508 42.8585 27.8927 38.3554 32.3957C33.1205 37.6304 24.7747 38.1548 18.9421 33.6159C18.5431 33.3055 17.9683 33.3772 17.6578 33.776C17.3474 34.1749 17.4192 34.7499 17.8181 35.0603C20.8062 37.3858 24.3804 38.5296 27.9432 38.5296C32.202 38.5296 36.4447 36.895 39.6498 33.6899C44.7132 28.6266 45.948 20.9331 42.7224 14.5457Z" fill="#FFAC18"/>
<path d="M40.3573 11.0595C40.1306 10.803 39.8924 10.5496 39.6493 10.3066C39.4062 10.0635 39.1529 9.82535 38.8964 9.59861C38.5176 9.26378 37.9392 9.29962 37.6047 9.67835C37.2697 10.057 37.3053 10.6353 37.6841 10.97C37.9126 11.1719 38.1383 11.3843 38.355 11.6008C38.5714 11.8175 38.7837 12.0431 38.9857 12.2716C39.1665 12.4762 39.4186 12.5807 39.6719 12.5807C39.8873 12.5807 40.1034 12.505 40.2775 12.3512C40.6564 12.0166 40.692 11.4383 40.3573 11.0595Z" fill="#FFAC18"/>
<path d="M49.559 23.6392C50.1693 22.6379 50.1693 21.3943 49.5588 20.3934L48.3548 18.4189C48.1962 18.1587 48.1349 17.8498 48.1823 17.549L48.5412 15.2688C48.7241 14.1067 48.2467 12.9551 47.2955 12.2631L45.4295 10.9058C45.1828 10.7263 45.0075 10.4644 44.9357 10.1679L44.3923 7.92215C44.1164 6.78142 43.2363 5.90146 42.0957 5.62538L39.8499 5.08184C39.5534 5.01005 39.2913 4.83469 39.1119 4.58799L37.7545 2.72156C37.0626 1.77037 35.9108 1.29273 34.7491 1.4758L32.4681 1.83468C32.1673 1.88198 31.8582 1.82073 31.5982 1.66216L29.6235 0.457802C28.6224 -0.152657 27.3788 -0.152544 26.3777 0.457802L24.4032 1.66182C24.1432 1.8205 23.8343 1.88153 23.5332 1.83434L21.2529 1.47546C20.0912 1.29262 18.9393 1.77003 18.2474 2.72122L16.8902 4.58719C16.7106 4.8339 16.4486 5.00925 16.152 5.08105L13.9063 5.62448C12.7658 5.90033 11.8856 6.7804 11.6095 7.92101L11.066 10.1669C10.9942 10.4633 10.8189 10.7255 10.5721 10.9048L8.70568 12.2623C7.75449 12.9541 7.27719 14.1056 7.45992 15.2676L7.8188 17.5487C7.8661 17.8497 7.80485 18.1586 7.64628 18.4186L6.44204 20.3935C5.8318 21.3946 5.8318 22.6382 6.44215 23.6392L7.64617 25.6137C7.80474 25.8739 7.8661 26.1828 7.81869 26.4837L7.45981 28.764C7.27685 29.9259 7.75426 31.0776 8.70545 31.7695L10.5714 33.1268C10.8181 33.3061 10.9935 33.5682 11.0653 33.8647L11.6087 36.1105C11.8846 37.2512 12.7646 38.1312 13.9052 38.4072L14.8431 38.6342L9.53345 50.7173C9.39858 51.0182 9.4359 51.3682 9.63133 51.6339C9.82665 51.8995 10.1496 52.0396 10.4772 52.0004L15.5838 51.3898L18.5256 55.6082C18.6978 55.8549 18.9788 55.9999 19.2761 55.9999C19.3045 55.9999 19.3334 55.9985 19.3619 55.9959C19.6902 55.9651 19.9766 55.7599 20.1115 55.4592L25.5562 43.0738L26.3775 43.5746C26.878 43.8798 27.4391 44.0324 28.0004 44.0324C28.5616 44.0324 29.1227 43.8797 29.6233 43.5746L30.4742 43.0558L35.9271 55.4592C36.0619 55.7601 36.3482 55.9651 36.6766 55.9959C36.7053 55.9986 36.734 56 36.7624 56C37.0597 56 37.3408 55.855 37.5129 55.6083L40.4547 51.3899L45.5614 52.0005C45.8887 52.0394 46.2119 51.8996 46.4072 51.634C46.6025 51.3684 46.64 51.0183 46.5051 50.7174L41.1922 38.6265L42.0947 38.4081C43.2352 38.1323 44.1154 37.2522 44.3915 36.1116L44.935 33.8658C45.0068 33.5693 45.1822 33.3071 45.4289 33.1278L47.2953 31.7703C48.2465 31.0785 48.7238 29.927 48.541 28.765L48.1822 26.4839C48.1349 26.183 48.1961 25.874 48.3547 25.614L49.559 23.6392ZM19.1024 53.2356L16.7711 49.8925C16.5778 49.6152 16.2473 49.4669 15.9117 49.5073L11.8648 49.9911L16.6101 39.1661C16.7158 39.2437 16.8107 39.3369 16.8888 39.4445L18.2463 41.3109C18.3753 41.4882 18.5202 41.6489 18.6782 41.7921L16.6717 46.5074C16.465 46.9687 16.6712 47.5101 17.1324 47.7168C17.254 47.7714 17.3812 47.7971 17.5062 47.7971C17.8557 47.7971 18.1897 47.5957 18.3418 47.2561L20.3375 42.565C20.636 42.6059 20.9432 42.6052 21.2516 42.5567L23.5326 42.1978C23.6692 42.1764 23.8072 42.1783 23.9416 42.2005L19.1024 53.2356ZM44.1739 49.9909L40.1269 49.5073C39.791 49.467 39.4608 49.6152 39.2676 49.8925L36.9362 53.2356L32.0945 42.1954C32.2178 42.1786 32.3436 42.1787 32.468 42.1982L34.7482 42.557C35.0691 42.6075 35.3888 42.6059 35.6986 42.5598L37.6966 47.2563C37.849 47.596 38.1827 47.7974 38.5322 47.7974C38.6573 47.7974 38.7845 47.7716 38.906 47.7171C39.3672 47.5104 39.5735 46.9688 39.3667 46.5076L37.3486 41.7665C37.496 41.6297 37.6322 41.4782 37.7537 41.3113L39.1109 39.4453C39.1964 39.3277 39.3012 39.2268 39.419 39.1453L44.1739 49.9909ZM47.9961 22.6861L46.7919 24.661C46.408 25.291 46.2594 26.0394 46.374 26.7682L46.7329 29.0492C46.8083 29.5289 46.6112 30.0043 46.2187 30.2899L44.3521 31.6475C43.7547 32.0821 43.3298 32.717 43.156 33.4351L42.6125 35.6809C42.4985 36.1518 42.1353 36.5151 41.6644 36.6291L39.4185 37.1725C38.7003 37.3462 38.0654 37.7711 37.6307 38.3687L36.2734 40.2346C35.9878 40.6274 35.5126 40.8243 35.0327 40.7488L32.7524 40.3899C32.0234 40.2752 31.2749 40.4236 30.6448 40.8078L28.6704 42.0118C28.2572 42.2636 27.7436 42.2636 27.3306 42.0118L25.3557 40.8077C24.8646 40.5081 24.3015 40.352 23.7318 40.352C23.5707 40.352 23.4089 40.3645 23.2484 40.3898L20.9673 40.7487C20.4875 40.8242 20.0122 40.627 19.7266 40.2344L18.369 38.368C17.9344 37.7706 17.2995 37.3457 16.5814 37.1719L14.3356 36.6284C13.8648 36.5144 13.5015 36.1512 13.3875 35.6802L12.844 33.4345C12.6703 32.7163 12.2455 32.0812 11.6478 31.6466L9.78198 30.2892C9.3893 30.0036 9.19228 29.5281 9.26782 29.0484L9.6267 26.7681C9.74137 26.0391 9.59301 25.2907 9.20884 24.6607L8.00482 22.686C7.7529 22.2728 7.7529 21.7593 8.00482 21.3462L9.20907 19.3714C9.59313 18.7414 9.7416 17.993 9.62693 17.2641L9.26805 14.9831C9.19262 14.5035 9.38975 14.0281 9.78232 13.7425L11.6489 12.3849C12.2463 11.9502 12.6712 11.3154 12.8449 10.5973L13.3885 8.35147C13.5025 7.88063 13.8657 7.51733 14.3366 7.40334L16.5824 6.85991C17.3007 6.68614 17.9356 6.26125 18.3702 5.66372L19.7274 3.79775C20.013 3.40507 20.4883 3.20782 20.9682 3.28347L23.2485 3.64235C23.9776 3.75725 24.7261 3.60867 25.3561 3.22449L27.3305 2.02047C27.7437 1.76867 28.2573 1.76867 28.6703 2.02047L30.6451 3.22461C31.2751 3.60889 32.0237 3.75737 32.7525 3.64258L35.0336 3.2837C35.5132 3.2085 35.9886 3.40541 36.2742 3.79797L37.6318 5.6644C38.0665 6.26182 38.7013 6.68671 39.4194 6.86048L41.6653 7.40402C42.1361 7.51801 42.4994 7.8812 42.6134 8.35215L43.1568 10.5979C43.3306 11.3161 43.7554 11.9512 44.353 12.3858L46.219 13.7431C46.6117 14.0287 46.8087 14.5042 46.7331 14.9838L46.3743 17.2641C46.2596 17.9931 46.408 18.7415 46.7921 19.3716L47.9961 21.3462C48.2482 21.7595 48.2482 22.2729 47.9961 22.6861Z" fill="#FFAC18"/>
<path d="M38.7099 19.1676C38.5082 18.5467 37.9802 18.1132 37.3319 18.0363L31.8249 17.3833L29.5022 12.3478C29.2287 11.755 28.6533 11.3867 28.0004 11.3867C27.3476 11.3867 26.7721 11.755 26.4986 12.3478L24.1759 17.3834L18.6689 18.0364C18.0206 18.1133 17.4925 18.5469 17.2909 19.1677C17.0892 19.7883 17.2617 20.4495 17.7408 20.8926L21.8122 24.6578L20.7315 30.097C20.6043 30.7374 20.8534 31.3735 21.3816 31.7571C21.673 31.9688 22.0112 32.076 22.3514 32.076C22.6281 32.076 22.906 32.0052 23.1613 31.8623L28.0003 29.1538L32.8393 31.8623C33.409 32.1812 34.0908 32.141 34.619 31.7573C35.1473 31.3735 35.3963 30.7373 35.2691 30.097L34.1884 24.6579L38.2598 20.8927C38.7391 20.4496 38.9115 19.7885 38.7099 19.1676ZM32.5697 23.6619C32.336 23.878 32.2314 24.2 32.2934 24.5122L33.3993 30.0781L28.4473 27.3063C28.3085 27.2286 28.1544 27.1897 28.0003 27.1897C27.8461 27.1897 27.6922 27.2285 27.5533 27.3063L22.6013 30.0781L23.7072 24.5122C23.7694 24.1999 23.6647 23.878 23.4309 23.6619L19.2645 19.8088L24.9002 19.1406C25.2162 19.1032 25.4902 18.9041 25.6235 18.6153L28.0004 13.4622L30.3772 18.6153C30.5106 18.9041 30.7844 19.1032 31.1006 19.1406L36.736 19.8088L32.5697 23.6619Z" fill="#FFAC18"/>
</g>
<defs>
<clipPath id="clip0">
<rect width="56" height="56" fill="white"/>
</clipPath>
</defs>
</svg>
