<svg width="150" height="150" viewBox="0 0 150 150" fill="none" xmlns="http://www.w3.org/2000/svg">
<path d="M102.03 12.0031C97.2552 6.30931 90.8636 2.11593 84.0484 0.153886C82.9703 -0.153886 81.8537 0 80.9296 0.615542C80.0055 1.19261 79.3894 2.1544 79.1969 3.2316L77.6953 13.0418H72.3047L70.8031 3.27007C70.4565 1.19261 68.4928 -0.2693 66.4136 0.0769428C66.2596 0.115414 66.1056 0.153886 65.9516 0.192357C58.9054 2.26981 52.6678 6.34778 47.9703 12.0031C42.7723 18.197 40 25.5065 40 33.0469C40 35.1629 41.7327 36.9325 43.8504 36.9325H59.2134V67.9405L57.0572 69.6717C55.4015 71.0182 55.1705 73.4419 56.5182 75.0962C57.1727 75.9425 58.1738 76.4811 59.2519 76.5196V87.9841L57.0957 89.7153C55.44 91.0618 55.209 93.4855 56.5567 95.1398C57.2112 95.9862 58.2123 96.5247 59.2904 96.5632V108.028L57.1342 109.759C55.4785 111.105 55.2475 113.529 56.5952 115.183C57.2497 116.03 58.2508 116.568 59.3289 116.607V128.071L57.1727 129.803C55.517 131.149 55.286 133.573 56.6337 135.227C57.2882 136.073 58.2893 136.612 59.3674 136.65V150H90.9406V112.26L93.0968 110.528C94.7525 109.182 94.9835 106.758 93.6359 105.104C92.9813 104.258 91.9802 103.719 90.9021 103.68V92.2544L93.0583 90.5232C94.714 89.1767 94.945 86.753 93.5974 85.0987C92.9428 84.2524 91.9417 83.7138 90.8636 83.6753V72.2493L93.0198 70.5181C94.6755 69.1716 94.9065 66.7479 93.5588 65.0936C92.9043 64.2472 91.9032 63.7086 90.8251 63.6702V52.2442L92.9813 50.513C94.637 49.1665 94.868 46.7428 93.5204 45.0885C92.8658 44.2421 91.8647 43.7035 90.7866 43.665V36.8941H106.15C108.267 36.8556 110 35.1244 110 33.0085C110 25.4681 107.228 18.197 102.03 12.0031ZM83.0858 142.306H66.9142V131.611L83.0858 118.453V142.306ZM83.0858 108.566L66.9142 121.724V111.606L83.0858 98.4483V108.566ZM83.0858 88.5612L66.9142 101.718V91.6004L83.0858 78.4432V88.5612ZM83.0858 68.556L66.9142 81.7133V71.5953L83.0858 58.4381V68.556ZM83.0858 48.5509L66.9142 61.7081V36.8941H83.0858V48.5509ZM48.0088 29.2383V29.1998C49.549 19.9667 56.4411 12.734 63.9109 9.19466L65.1815 17.543C65.4895 19.4281 67.1067 20.7746 68.9934 20.7746H81.0066C82.8933 20.7746 84.5104 19.4281 84.8185 17.543L86.0891 9.19466C93.5203 12.734 100.413 20.0051 101.991 29.2383H48.0088Z" fill="#E5E5E5"/>
</svg>
