<svg width="54" height="54" viewBox="0 0 54 54" fill="none" xmlns="http://www.w3.org/2000/svg">
<path d="M23.3437 36.6152C26.6299 36.6152 29.2939 33.9512 29.2939 30.665C29.2939 27.3788 26.6299 24.7148 23.3437 24.7148C20.0575 24.7148 17.3936 27.3788 17.3936 30.665C17.3986 33.9491 20.0596 36.6102 23.3437 36.6152ZM23.3437 26.5457C25.6188 26.5457 27.4631 28.39 27.4631 30.665C27.4631 32.9401 25.6188 34.7844 23.3437 34.7844C21.0687 34.7844 19.2244 32.9401 19.2244 30.665C19.2294 28.3921 21.0708 26.5507 23.3437 26.5457Z" fill="#FFAC18"/>
<path d="M2.25229 25.3757C0.931092 25.6173 -0.0215346 26.779 0.000370132 28.1219V33.3032C-0.0215346 34.6461 0.931092 35.8079 2.25229 36.0494L7.60746 37.0198C7.66239 37.1662 7.72646 37.3127 7.79054 37.45L4.68729 41.8348C3.93241 42.9273 4.0673 44.4034 5.00768 45.3409L8.66934 49.0025C9.60919 49.94 11.0851 50.071 12.1754 49.3138L16.6518 46.2105L17.082 46.3936L18.0523 51.7488C18.2939 53.07 19.4557 54.0226 20.7986 54.0007H25.9798C27.3227 54.0226 28.4845 53.07 28.7261 51.7488L29.6964 46.3936L30.1266 46.2105L34.603 49.3138C35.6955 50.0687 37.1715 49.9338 38.1091 48.9934L41.0567 46.0549C41.4258 45.7061 41.4421 45.1241 41.0933 44.755C40.7445 44.386 40.1625 44.3696 39.7934 44.7184L36.8092 47.7027C36.4983 48.0138 36.0102 48.0599 35.6466 47.8125L31.9849 45.2677C34.1063 44.0169 35.9255 42.3134 37.3126 40.2786C37.5958 39.859 37.4851 39.2893 37.0655 39.0062C36.6459 38.7231 36.0762 38.8338 35.7931 39.2534C31.4471 45.5847 23.0422 47.6473 16.2591 44.0471C9.47586 40.4469 6.47377 32.3301 9.28181 25.1825C12.0899 18.0349 19.8141 14.132 27.2339 16.1117C27.5512 16.1935 27.8879 16.0998 28.1174 15.8659C28.3468 15.6321 28.434 15.2936 28.3462 14.978C28.2584 14.6624 28.0089 14.4176 27.6916 14.3358C24.8608 13.6036 21.8902 13.6036 19.0593 14.3358L19.8465 9.95098C19.9271 9.51058 20.3143 9.19304 20.762 9.20034H23.8011C24.3067 9.20034 24.7165 8.79049 24.7165 8.28492C24.7165 7.77936 24.3067 7.36951 23.8011 7.36951H20.7528C19.4099 7.34761 18.2481 8.30023 18.0066 9.62143L17.0362 14.9766L16.606 15.1597L12.1754 12.0107C11.0829 11.2558 9.60686 11.3907 8.66934 12.3311L5.00768 15.9927C4.0702 16.9326 3.93918 18.4084 4.69644 19.4987L7.7997 23.9751C7.73562 24.1124 7.67154 24.2589 7.61661 24.4054L2.25229 25.3757ZM1.8312 33.2574V28.0762C1.8239 27.6285 2.14144 27.2413 2.58184 27.1608L6.95752 26.3735C6.2251 29.1826 6.2251 32.1326 6.95752 34.9418L2.58184 34.1545C2.14828 34.0752 1.83281 33.6982 1.8312 33.2574ZM27.6276 47.0527L26.8403 51.4284C26.7598 51.8688 26.3725 52.1863 25.9249 52.179H20.7528C20.3052 52.1863 19.9179 51.8688 19.8374 51.4284L19.0501 47.0527C21.8616 47.7912 24.8161 47.7912 27.6276 47.0527ZM14.8118 45.286L11.1501 47.8217C10.7886 48.0714 10.3007 48.0292 9.98754 47.721L6.32588 44.0593C6.01475 43.7485 5.96863 43.2603 6.21603 42.8967L8.75173 39.2351C10.2184 41.736 12.3017 43.8193 14.8026 45.286H14.8118ZM6.28926 17.2926L9.95092 13.6309C10.2617 13.3198 10.7499 13.2737 11.1135 13.5211L14.7752 16.0568C12.2607 17.5274 10.1674 19.6207 8.6968 22.1351L6.16111 18.4735C5.90798 18.1018 5.9623 17.6013 6.28926 17.2926Z" fill="#FFAC18"/>
<path d="M52.1786 0H28.3778C27.3667 0 26.547 0.81969 26.547 1.83083V10.0696C26.5387 10.7206 26.8909 11.323 27.4624 11.6349C27.8316 11.8543 28.2622 11.9474 28.6891 11.9004C31.3163 18.4822 30.7122 16.9535 31.6459 19.2786C30.8109 19.4624 30.2143 20.1996 30.2087 21.0545V23.8008C30.2087 24.8119 31.0284 25.6316 32.0395 25.6316H32.9549V28.3778C32.9549 29.389 33.7746 30.2087 34.7857 30.2087H35.7012V35.7011C35.7012 35.9893 35.8368 36.2606 36.0673 36.4335L39.3628 38.9051V42.109C39.3628 42.6146 39.7727 43.0245 40.2782 43.0245C40.7838 43.0245 41.1936 42.6146 41.1936 42.109V38.9051L44.4891 36.4335C44.7196 36.2606 44.8553 35.9893 44.8553 35.7011V30.2087H45.7707C46.7819 30.2087 47.6015 29.389 47.6015 28.3778V25.6316H48.517C49.5281 25.6316 50.3478 24.8119 50.3478 23.8008V21.0545C50.3441 20.2051 49.7566 19.4697 48.9289 19.2786L51.8857 11.9004H52.1786C53.1897 11.9004 54.0094 11.0807 54.0094 10.0696V1.83083C54.0094 0.81969 53.1897 0 52.1786 0V0ZM43.0245 35.2434L40.2782 37.3031L37.532 35.2434V30.2087H43.0245V35.2434ZM48.517 23.8008H40.2782C39.7727 23.8008 39.3628 24.2106 39.3628 24.7162C39.3628 25.2217 39.7727 25.6316 40.2782 25.6316H45.7707V28.3778H34.7857V25.6316H36.6166C37.1221 25.6316 37.532 25.2217 37.532 24.7162C37.532 24.2106 37.1221 23.8008 36.6166 23.8008H32.0395V21.0545H48.517V23.8008ZM46.9791 19.2237H33.5774L30.6481 11.9004H49.8718L46.9791 19.2237ZM52.1786 10.0696H28.3778V1.83083H52.1786V10.0696Z" fill="#FFAC18"/>
<path d="M31.1244 5.49489H32.9552C33.4608 5.49489 33.8706 5.08505 33.8706 4.57948C33.8706 4.07391 33.4608 3.66406 32.9552 3.66406H31.1244C30.6188 3.66406 30.209 4.07391 30.209 4.57948C30.209 5.08505 30.6188 5.49489 31.1244 5.49489Z" fill="#FFAC18"/>
<path d="M36.6176 5.49489H49.4334C49.9389 5.49489 50.3488 5.08505 50.3488 4.57948C50.3488 4.07391 49.9389 3.66406 49.4334 3.66406H36.6176C36.112 3.66406 35.7021 4.07391 35.7021 4.57948C35.7021 5.08505 36.112 5.49489 36.6176 5.49489Z" fill="#FFAC18"/>
<path d="M18.208 20.641C17.9795 20.1921 17.4314 20.0122 16.9813 20.2382C13.1183 22.1697 10.9854 26.0328 10.9854 31.1225C10.9854 31.628 11.3952 32.0379 11.9008 32.0379C12.4063 32.0379 12.8162 31.628 12.8162 31.1225C12.8162 26.7651 14.5829 23.4788 17.8052 21.8676C18.254 21.6392 18.434 21.091 18.208 20.641Z" fill="#FFAC18"/>
<path d="M20.139 20.1414C20.6446 20.1414 21.0545 19.7315 21.0545 19.226C21.0545 18.7204 20.6446 18.3105 20.139 18.3105C19.6335 18.3105 19.2236 18.7204 19.2236 19.226C19.2236 19.7315 19.6335 20.1414 20.139 20.1414Z" fill="#FFAC18"/>
</svg>
