<svg width="218" height="210" viewBox="0 0 218 210" fill="none" xmlns="http://www.w3.org/2000/svg">
<mask id="mask0" mask-type="alpha" maskUnits="userSpaceOnUse" x="0" y="0" width="218" height="210">
<path d="M0.5 4C0.5 2.067 2.067 0.5 4 0.5H214C215.933 0.5 217.5 2.067 217.5 4V206C217.5 207.933 215.933 209.5 214 209.5H4C2.06701 209.5 0.5 207.933 0.5 206V4Z" fill="#F5F5F5" stroke="#FFAD27"/>
</mask>
<g mask="url(#mask0)">
<path d="M188.258 67.331L75.5595 -68.3162C65.4993 -80.4249 47.4786 -82.0901 35.3699 -72.0299L-57.3397 4.99547C-69.4484 15.0557 -71.1136 33.0764 -61.0534 45.1851L51.6146 180.795C61.6748 192.904 79.6955 194.569 91.8042 184.509L184.477 107.514C196.616 97.4913 198.319 79.4397 188.258 67.331ZM83.503 174.517C76.9287 179.979 67.1363 179.075 61.6741 172.5L-51.0247 36.853C-56.4869 30.2787 -55.582 20.4863 -49.0076 15.0241L43.6648 -61.9703C50.2391 -67.4325 60.0315 -66.5276 65.4937 -59.9532L178.162 75.6568C183.624 82.2311 182.719 92.0235 176.145 97.4857L83.4722 174.48L83.503 174.517Z" fill="#EAEAEA"/>
<path d="M84.2261 78.7387L160.074 89.9309C163.628 90.4309 166.94 87.9935 167.477 84.4082C167.977 80.8538 165.539 77.5423 161.954 77.0053L57.3125 61.6092L58.0479 41.0336C58.0541 40.9656 58.0604 40.8976 58.0976 40.8667C58.1416 40.3907 58.1484 39.9455 58.1244 39.4632L61.2041 -44.3355C61.3331 -47.9585 58.5243 -50.9613 54.9013 -51.0904C51.2783 -51.2194 48.2755 -48.4106 48.1464 -44.7876L45.3483 32.6245L-32.8201 22.7952C-36.3809 22.3633 -39.6306 24.875 -40.0996 28.4665C-40.3064 30.3335 -39.7527 32.1335 -38.6417 33.4707C-37.6233 34.6964 -36.1593 35.5518 -34.4655 35.7769L44.8527 45.781L44.0916 67.0058C44.0397 68.6813 44.6186 70.2094 45.6061 71.3979C46.5936 72.5865 48.0577 73.4419 49.6835 73.6608L71.3004 76.8585L65.9759 156.746C65.8497 158.483 66.4532 160.117 67.4715 161.342C68.5825 162.679 70.1826 163.547 72.0558 163.686C75.6353 163.914 78.768 161.186 78.9958 157.606L84.2261 78.7387Z" fill="#EAEAEA"/>
</g>
</svg>
