<svg width="38" height="38" viewBox="0 0 38 38" fill="none" xmlns="http://www.w3.org/2000/svg">
<path fill-rule="evenodd" clip-rule="evenodd" d="M0.00056027 13.8101L13.9911 0L32.9562 5.19049L37.9302 24.1905L23.9398 38L4.97408 32.8101L4.84465 32.2993L0 13.8101H0.00056027ZM31.1118 18.2063C32.6424 23.6342 32.5746 22.4914 27.3664 27.6252C21.5726 33.336 23.6417 32.7972 15.7946 30.6434C7.94743 28.4896 9.44897 30.0091 7.39612 22.1445C5.34273 14.2799 4.77574 16.3388 10.5689 10.6285C15.7772 5.49416 14.6331 5.41165 20.0486 7.0114L7.54011 19.3346L9.11054 25.6465L26.3141 8.69533C28.4942 9.29821 28.9317 9.74111 29.5072 11.9263L12.3612 28.8202L18.5746 30.5564L31.1112 18.2057L31.1118 18.2063Z" fill="#FFAC18"/>
</svg>
