<svg width="164" height="33" viewBox="0 0 164 33" fill="none" xmlns="http://www.w3.org/2000/svg">
<path d="M0.000964007 16.7187H12.3783V13.5017H3.55372V10.0503H11.2168V6.83341H3.55372V3.49828H12.2618V0.281347H0V16.7177L0.000964007 16.7187ZM24.0362 16.7187H31.7696C35.4389 16.7187 37.8543 15.2162 37.8543 12.2103C37.8543 9.95558 36.6928 8.85266 34.812 8.12487C35.9734 7.46742 36.949 6.43386 36.949 4.57873C36.949 3.40449 36.5773 2.48914 35.8348 1.7379C34.9054 0.799103 33.4425 0.282324 31.5847 0.282324H24.0372V16.7187H24.0362ZM27.5196 6.92719V3.45236H31.0502C32.5594 3.45236 33.3953 4.06292 33.3953 5.1424C33.3953 6.41041 32.3966 6.92719 30.8181 6.92719H27.5206H27.5196ZM27.5196 13.5486V9.93213H31.6531C33.4878 9.93213 34.3006 10.613 34.3006 11.7169C34.3006 12.9849 33.3491 13.5486 31.7696 13.5486H27.5196ZM49.2792 16.7187H52.855V11.7873H55.5718C59.218 11.7873 62.1438 9.81491 62.1438 6.01086C62.1438 2.60637 59.7987 0.281347 55.9195 0.281347H49.2782V16.7177L49.2792 16.7187ZM52.855 8.57034V3.54517H55.6181C57.4065 3.54517 58.5217 4.41363 58.5217 6.03431C58.5217 7.48989 57.4758 8.57034 55.6884 8.57034H52.855ZM71.8746 16.7187H75.5208L77.0068 13.0318H83.8802L85.3672 16.7187H89.1058L82.139 0.164118H78.8405L71.8746 16.7187ZM78.2838 9.83835L80.444 4.50839L82.6041 9.83835H78.2848H78.2838ZM105.873 0C102.784 0 100.833 1.1039 99.324 2.70015L101.205 5.00172C102.296 3.87438 103.597 3.19348 105.594 3.19348C107.15 3.19348 108.218 3.87438 108.218 5.02419C108.218 6.26876 107.196 6.92622 105.315 6.92622H103.481V9.93213H105.36C107.218 9.93213 108.589 10.4958 108.589 11.8576C108.589 13.1256 107.358 13.83 105.849 13.83C103.736 13.83 101.994 13.0553 100.67 11.7404L98.7663 14.253C100.509 16.0378 102.575 17 105.988 17C109.774 17 112.165 14.9104 112.165 12.0696C112.165 9.98 110.865 8.75888 109.123 8.19521C110.563 7.5612 111.748 6.45828 111.748 4.41461C111.748 1.85513 109.355 0 105.873 0ZM137.757 0.281347H134.436L127.284 11.0595V0.281347H123.753V16.7177H127.121L134.227 5.93955V16.7177H137.757V0.281347ZM162.999 0.281347H155.568C151.76 0.281347 149.438 2.3006 149.438 5.70509C149.438 8.40524 150.855 10.0728 152.922 10.8475L148.951 16.7177H153.13L156.614 11.4581H159.423V16.7177H163V0.281347H162.999ZM155.8 8.26457C154.058 8.26457 153.06 7.32577 153.06 5.93955C153.06 4.34232 154.128 3.54419 155.869 3.54419H159.422V8.26359H155.8V8.26457Z" fill="white"/>
<path d="M1.36554 28.2508H4.33673V27.0991H0V32.9009H1.36554V28.2517V28.2508ZM9.23181 27.0991V28.3013C9.23181 31.4257 8.81522 31.8654 8.07844 31.8654C7.98972 31.8654 7.92704 31.8573 7.86532 31.8483L7.7766 32.9009C7.94536 32.9423 8.27324 32.9757 8.49505 32.9757C9.91362 32.9757 10.5077 32.1051 10.5077 28.6906V28.2517H12.2994V32.9009H13.665V27.0991H9.23085H9.23181ZM17.7278 32.9009H19.1204L19.6884 31.6005H22.3134L22.8814 32.9009H24.3086L21.6479 27.0586H20.3885L17.7278 32.9009ZM20.1754 30.4731L20.9999 28.5915L21.8244 30.4731H20.1754ZM28.3695 32.9009H31.3224C32.7236 32.9009 33.6465 32.371 33.6465 31.3103C33.6465 30.5146 33.2029 30.1253 32.4845 29.8675C32.9281 29.6359 33.3003 29.271 33.3003 28.6158C33.3003 28.2013 33.1586 27.8786 32.8741 27.6128C32.5192 27.2812 31.9608 27.0991 31.251 27.0991H28.3686V32.9009H28.3695ZM29.6994 29.4449V28.2184H31.0476C31.6242 28.2184 31.9435 28.4338 31.9435 28.815C31.9435 29.2628 31.5625 29.4449 30.9588 29.4449H29.6994ZM29.6994 31.7825V30.5065H31.278C31.9782 30.5065 32.2887 30.7462 32.2887 31.1364C32.2887 31.5843 31.9251 31.7834 31.3214 31.7834H29.6984L29.6994 31.7825ZM37.8762 32.9009H39.2417V30.5722H41.7597V32.9009H43.1252V27.0991H41.7597V29.3953H39.2417V27.0991H37.8762V32.9009ZM47.7194 32.9009H50.3184C51.7726 32.9009 52.6772 32.1466 52.6772 30.9534C52.6772 29.818 51.843 29.0718 50.4071 29.0718H49.0859V27.0991H47.7194V32.9009ZM50.2914 30.1658C50.9741 30.1658 51.3203 30.4479 51.3203 30.9363C51.3203 31.4752 50.9741 31.7483 50.301 31.7483H49.0859V30.1649H50.2914V30.1658ZM53.3686 32.9009H54.7342V27.0991H53.3686V32.9009ZM59.3284 32.9009H64.0547V31.7654H60.6852V30.547H63.6111V29.4115H60.6852V28.2346H64.0103V27.0991H59.3284V32.9009ZM73.4293 32.9009H74.7957V28.2517H77.2433V32.9009H78.6088V27.0991H73.4293V32.9009ZM86.2176 33C88.1328 33 89.5254 31.6491 89.5254 30C89.5254 28.3337 88.1512 27 86.235 27C84.3198 27 82.9272 28.3509 82.9272 30C82.9272 31.6663 84.3024 33 86.2176 33ZM86.235 31.8231C85.1356 31.8231 84.3554 30.9949 84.3554 30C84.3554 28.9898 85.1183 28.1769 86.2176 28.1769C87.317 28.1769 88.0972 29.0051 88.0972 30C88.0972 31.0111 87.3353 31.8231 86.235 31.8231ZM98.899 32.9009H100.265V31.1274L100.984 30.4317L102.908 32.9009H104.548L101.906 29.5611L104.433 27.0991H102.784L100.266 29.635V27.0991H98.8999V32.9009H98.899ZM108.476 32.9009H109.843V31.1607H110.879C112.272 31.1607 113.389 30.465 113.389 29.1214C113.389 27.9201 112.494 27.0991 111.012 27.0991H108.476V32.9009ZM109.843 30.0252V28.2517H110.898C111.58 28.2517 112.007 28.5581 112.007 29.1304C112.007 29.644 111.607 30.0252 110.925 30.0252H109.843H109.843ZM117.504 32.9009H122.231V31.7654H118.861V30.547H121.787V29.4115H118.861V28.2346H122.186V27.0991H117.504V32.9009ZM126.55 32.9009H127.916V28.2517H130.363V32.9009H131.729V27.0991H126.549V32.9009H126.55ZM136.323 32.9009H141.049V31.7654H137.68V30.547H140.606V29.4115H137.68V28.2346H141.005V27.0991H136.323V32.9009ZM150.264 32.9009V31.3599L151.08 30.5317L152.836 32.9018H154.467L152.01 29.6116L154.378 27.1009H152.755L150.263 29.8117V27.1009H148.906V29.8117L146.414 27.1009H144.791L147.158 29.6116L144.701 32.9018H146.333L148.08 30.5317L148.905 31.3599V32.9009H150.262H150.264ZM161.02 30.1658L159.335 27.0991H157.81L160.293 31.4419C160.045 31.7978 159.762 31.906 159.513 31.906C159.274 31.906 159.026 31.8564 158.777 31.7149L158.245 32.6521C158.635 32.8594 159.052 32.9919 159.584 32.9919C160.453 32.9919 161.074 32.5945 161.615 31.5834L164 27.0991H162.52L161.02 30.1658Z" fill="white"/>
</svg>
