<svg width="40" height="67" viewBox="0 0 40 67" fill="none" xmlns="http://www.w3.org/2000/svg">
<rect width="40" height="67" rx="5" fill="white"/>
<g clip-path="url(#clip0)">
<path d="M40.25 21.0643V57.4569C40.25 59.414 38.6559 61 36.6922 61H3.80782C1.84257 61 0.25 59.414 0.25 57.4569V9.5431C0.249892 7.58598 1.84246 6 3.80782 6H25.1231L40.25 21.0643Z" fill="#FFAC18"/>
<path d="M40.25 21H28.778C26.8291 21 25.25 19.4208 25.25 17.472V6L40.25 21Z" fill="#E0E0E0"/>
<path d="M13.0623 33H10V41H11.6373V38.7943H13.0623C14.9523 38.7943 16.1348 37.6857 16.1348 35.9029C16.1348 34.1086 14.9523 33 13.0623 33ZM12.9714 37.2857H11.6373V34.5086H12.9714C13.9719 34.5086 14.4773 35.0229 14.4773 35.9029C14.4773 36.7714 13.9719 37.2857 12.9714 37.2857Z" fill="white"/>
<path d="M17.3037 41H20.5176C22.832 41 24.4188 39.4229 24.4188 37C24.4188 34.5771 22.832 33 20.5176 33H17.3037V41ZM18.941 39.48V34.52H20.4368C21.8416 34.52 22.7613 35.4686 22.7613 37C22.7613 38.5314 21.8416 39.48 20.4368 39.48H18.941Z" fill="white"/>
<path d="M31 34.4857V33H25.6536V41H27.2908V38.0857H30.5654V36.6H27.2908V34.4857H31Z" fill="white"/>
</g>
<defs>
<clipPath id="clip0">
<rect y="6" width="40" height="55" fill="white"/>
</clipPath>
</defs>
</svg>
