<svg width="90" height="90" viewBox="0 0 90 90" fill="none" xmlns="http://www.w3.org/2000/svg">
<g opacity="0.1">
<path d="M88.3717 43.7541L78.6148 37.6558L88.3717 31.5576C88.5831 31.424 88.7569 31.2386 88.8766 31.0191C88.9963 30.7995 89.058 30.5531 89.0557 30.303C89.0535 30.053 88.9875 29.8076 88.864 29.5902C88.7404 29.3728 88.5634 29.1905 88.3496 29.0607L63.0651 13.8812C61.7851 10.1073 59.3548 6.82924 56.1158 4.50763C52.8769 2.18601 48.9919 0.9375 45.0068 0.9375C41.0218 0.9375 37.1368 2.18601 33.8978 4.50763C30.6588 6.82924 28.2286 10.1073 26.9486 13.8812L1.64933 29.0534C1.43562 29.1832 1.25859 29.3655 1.13502 29.5829C1.01145 29.8003 0.945436 30.0456 0.943229 30.2957C0.941023 30.5457 1.0027 30.7922 1.12241 31.0118C1.24212 31.2313 1.41591 31.4167 1.6273 31.5502L11.3842 37.6558L1.6273 43.7541C1.4117 43.8883 1.23457 44.076 1.1132 44.2991C0.991823 44.5221 0.930356 44.7729 0.934795 45.0268C0.939234 45.2807 1.00943 45.5291 1.13852 45.7478C1.26762 45.9664 1.45121 46.1479 1.67137 46.2745L12.687 52.5666V69.9683C12.6865 70.2266 12.7541 70.4805 12.883 70.7044C13.012 70.9282 13.1977 71.1141 13.4214 71.2432L44.2651 88.8682C44.487 88.9949 44.7381 89.0616 44.9936 89.0616C45.2491 89.0616 45.5002 88.9949 45.7221 88.8682L76.5659 71.2432C76.7918 71.1156 76.9798 70.9303 77.1109 70.7064C77.2419 70.4825 77.3113 70.2278 77.312 69.9683V52.5666L88.3276 46.2745C88.5481 46.1484 88.7321 45.9674 88.8617 45.749C88.9914 45.5306 89.0622 45.2823 89.0672 45.0284C89.0722 44.7745 89.0113 44.5236 88.8905 44.3003C88.7696 44.0769 88.5929 43.8887 88.3776 43.7541H88.3717ZM60.5198 30.5956L72.8822 37.6558L44.9995 53.5888L17.1167 37.6558L29.4792 30.5956C33.6306 37.6479 38.4629 44.2767 43.9067 50.387C44.0445 50.5403 44.213 50.663 44.4012 50.747C44.5895 50.8309 44.7933 50.8743 44.9995 50.8743C45.2056 50.8743 45.4095 50.8309 45.5977 50.747C45.786 50.663 45.9545 50.5403 46.0922 50.387C51.5361 44.2767 56.3683 37.6479 60.5198 30.5956ZM84.7806 30.3385L75.8095 35.9447L61.8563 27.9753C63.1485 25.5124 63.9105 22.8061 64.0932 20.0308C64.0899 19.3008 64.0448 18.5716 63.9581 17.8468L84.7806 30.3385ZM44.9995 3.87458C49.2828 3.87964 53.3893 5.58343 56.4181 8.61222C59.4469 11.641 61.1507 15.7475 61.1557 20.0308C61.1557 27.0324 50.359 40.9767 44.9995 47.1807C39.64 40.9781 28.8432 27.0368 28.8432 20.0308C28.8483 15.7475 30.5521 11.641 33.5809 8.61222C36.6097 5.58343 40.7161 3.87964 44.9995 3.87458ZM26.0409 17.8468C25.9542 18.5716 25.9091 19.3008 25.9057 20.0308C26.0889 22.8062 26.8514 25.5125 28.1441 27.9753L14.191 35.9447L5.2184 30.3385L26.0409 17.8468ZM14.1895 39.3669L42.1384 55.3366L33.2157 60.9179L5.26687 44.9438L14.1895 39.3669ZM15.6245 54.2439L32.5151 63.8995C32.7455 64.0312 33.0073 64.098 33.2726 64.0928C33.538 64.0876 33.797 64.0107 34.0221 63.8701L43.5307 57.9246V85.0627L15.6245 69.1165V54.2439ZM74.3745 69.1165L46.4682 85.0627V57.9246L55.9711 63.8642C56.1961 64.0048 56.4551 64.0818 56.7205 64.0869C56.9858 64.0921 57.2476 64.0253 57.478 63.8936L74.3745 54.2439V69.1165ZM56.7833 60.9135L47.8606 55.3322L75.8095 39.3669L84.7321 44.9482L56.7833 60.9135Z" fill="#4B4B45"/>
<path d="M54.6016 74.5391L50.119 77.1006C49.9515 77.1963 49.8045 77.3242 49.6864 77.4767C49.5683 77.6293 49.4813 77.8037 49.4306 77.9898C49.3799 78.176 49.3663 78.3703 49.3907 78.5618C49.415 78.7532 49.4769 78.9379 49.5726 79.1054C49.6684 79.2729 49.7962 79.42 49.9488 79.5381C50.1014 79.6562 50.2757 79.7431 50.4619 79.7938C50.6481 79.8446 50.8424 79.8581 51.0338 79.8338C51.2252 79.8094 51.41 79.7476 51.5775 79.6518L56.0586 77.0903C56.2262 76.9946 56.3732 76.8669 56.4913 76.7144C56.6095 76.5619 56.6965 76.3876 56.7473 76.2015C56.7981 76.0154 56.8117 75.8212 56.7874 75.6298C56.7632 75.4384 56.7014 75.2537 56.6057 75.0862C56.5101 74.9187 56.3824 74.7716 56.2299 74.6535C56.0774 74.5353 55.9031 74.4484 55.717 74.3976C55.5309 74.3468 55.3366 74.3331 55.1452 74.3574C54.9539 74.3817 54.7692 74.4434 54.6016 74.5391Z" fill="#4B4B45"/>
<path d="M59.6462 74.8165C59.9013 74.8169 60.1521 74.75 60.3732 74.6226L62.0461 73.6665C62.2136 73.5708 62.3607 73.4431 62.4788 73.2906C62.597 73.1381 62.6839 72.9638 62.7347 72.7777C62.7855 72.5916 62.7992 72.3973 62.7749 72.206C62.7506 72.0146 62.6889 71.8299 62.5932 71.6624C62.4976 71.4948 62.3698 71.3478 62.2173 71.2297C62.0649 71.1115 61.8906 71.0245 61.7045 70.9737C61.5184 70.9229 61.3241 70.9093 61.1327 70.9336C60.9413 70.9578 60.7566 71.0196 60.5891 71.1152L58.9162 72.0729C58.6347 72.2339 58.4145 72.4835 58.2898 72.7828C58.165 73.0821 58.1429 73.4143 58.2267 73.7275C58.3105 74.0407 58.4957 74.3174 58.7532 74.5144C59.0108 74.7114 59.3263 74.8176 59.6506 74.8165H59.6462Z" fill="#4B4B45"/>
<path d="M54.6016 68.6641L50.119 71.2256C49.9515 71.3213 49.8045 71.4492 49.6864 71.6017C49.5683 71.7543 49.4813 71.9287 49.4306 72.1148C49.3799 72.301 49.3663 72.4953 49.3907 72.6868C49.415 72.8782 49.4769 73.0629 49.5726 73.2304C49.6684 73.3979 49.7962 73.545 49.9488 73.6631C50.1014 73.7812 50.2757 73.8681 50.4619 73.9188C50.6481 73.9696 50.8424 73.9831 51.0338 73.9588C51.2252 73.9344 51.41 73.8726 51.5775 73.7768L56.0586 71.2153C56.2262 71.1196 56.3732 70.9919 56.4913 70.8394C56.6095 70.6869 56.6965 70.5126 56.7473 70.3265C56.7981 70.1404 56.8117 69.9462 56.7874 69.7548C56.7632 69.5634 56.7014 69.3787 56.6057 69.2112C56.5101 69.0437 56.3824 68.8966 56.2299 68.7785C56.0774 68.6603 55.9031 68.5734 55.717 68.5226C55.5309 68.4718 55.3366 68.4581 55.1452 68.4824C54.9539 68.5067 54.7692 68.5684 54.6016 68.6641Z" fill="#4B4B45"/>
<path d="M59.6462 68.9415C59.9013 68.9419 60.1521 68.875 60.3732 68.7476L62.0461 67.7915C62.3844 67.5982 62.6321 67.2786 62.7347 66.9027C62.8373 66.5269 62.7864 66.1257 62.5932 65.7874C62.4 65.449 62.0803 65.2013 61.7045 65.0987C61.3286 64.9961 60.9274 65.047 60.5891 65.2402L58.9162 66.1979C58.6347 66.3589 58.4145 66.6085 58.2898 66.9078C58.165 67.2071 58.1429 67.5393 58.2267 67.8525C58.3105 68.1657 58.4957 68.4424 58.7532 68.6394C59.0108 68.8364 59.3263 68.9426 59.6506 68.9415H59.6462Z" fill="#4B4B45"/>
<path d="M45 25.9062C46.4525 25.9062 47.8723 25.4755 49.08 24.6686C50.2877 23.8617 51.2289 22.7147 51.7847 21.3728C52.3406 20.0309 52.486 18.5544 52.2027 17.1298C51.9193 15.7053 51.2199 14.3967 50.1928 13.3697C49.1658 12.3426 47.8573 11.6432 46.4327 11.3599C45.0082 11.0765 43.5316 11.2219 42.1897 11.7778C40.8478 12.3336 39.7008 13.2749 38.8939 14.4825C38.087 15.6902 37.6563 17.11 37.6562 18.5625C37.6586 20.5095 38.433 22.376 39.8098 23.7527C41.1865 25.1295 43.053 25.9039 45 25.9062ZM45 14.1563C45.8715 14.1563 46.7234 14.4147 47.448 14.8988C48.1726 15.383 48.7374 16.0712 49.0709 16.8763C49.4044 17.6814 49.4916 18.5674 49.3216 19.4221C49.1516 20.2768 48.7319 21.062 48.1157 21.6782C47.4995 22.2944 46.7144 22.7141 45.8596 22.8841C45.0049 23.0541 44.1189 22.9668 43.3138 22.6333C42.5087 22.2998 41.8205 21.7351 41.3363 21.0105C40.8522 20.2859 40.5938 19.434 40.5938 18.5625C40.5938 17.3939 41.058 16.2731 41.8843 15.4468C42.7106 14.6205 43.8314 14.1563 45 14.1563Z" fill="#4B4B45"/>
</g>
</svg>
